<svg width="44" height="45" viewBox="0 0 44 45" fill="none" xmlns="http://www.w3.org/2000/svg">
  <path d="M18.7 19.1999C18.6999 19.5817 18.6004 19.9569 18.4113 20.2886C18.2223 20.6202 17.9502 20.897 17.6218 21.0917C17.2933 21.2864 16.9199 21.3922 16.5382 21.3988C16.1564 21.4055 15.7796 21.3126 15.4446 21.1295C15.1096 20.9463 14.8281 20.6792 14.6276 20.3542C14.4272 20.0293 14.3147 19.6578 14.3013 19.2762C14.288 18.8947 14.3741 18.5162 14.5513 18.1781C14.7285 17.8399 14.9907 17.5537 15.312 17.3475L12.6346 15.7415C12.396 15.5862 12.2269 15.3444 12.1629 15.0669C12.0989 14.7895 12.1449 14.498 12.2914 14.2538C12.4378 14.0097 12.6733 13.8318 12.9481 13.7576C13.223 13.6834 13.516 13.7187 13.7654 13.8561L19.2698 17.1561C19.4777 17.2795 19.6392 17.4679 19.7293 17.6922C19.8194 17.9166 19.8331 18.1644 19.7682 18.3972C19.7033 18.6301 19.5636 18.8352 19.3705 18.9807C19.1774 19.1262 18.9417 19.204 18.7 19.2021V19.1999ZM29.7 19.1999C29.7 19.7834 29.4682 20.343 29.0556 20.7555C28.643 21.1681 28.0835 21.3999 27.5 21.3999C26.9165 21.3999 26.3569 21.1681 25.9444 20.7555C25.5318 20.343 25.3 19.7834 25.3 19.1999C25.0595 19.1995 24.8257 19.1203 24.6345 18.9744C24.4433 18.8285 24.3052 18.624 24.2413 18.3921C24.1774 18.1603 24.1913 17.9139 24.2808 17.6906C24.3703 17.4674 24.5304 17.2796 24.7368 17.1561L30.2324 13.8561C30.3563 13.7817 30.4937 13.7325 30.6367 13.7112C30.7797 13.6899 30.9254 13.6969 31.0657 13.732C31.2059 13.767 31.3379 13.8293 31.4541 13.9153C31.5702 14.0014 31.6683 14.1095 31.7427 14.2334C31.8171 14.3573 31.8663 14.4947 31.8876 14.6377C31.9089 14.7807 31.9019 14.9264 31.8668 15.0667C31.8318 15.2069 31.7695 15.3389 31.6834 15.4551C31.5974 15.5712 31.4893 15.6693 31.3654 15.7437L28.6902 17.3497C28.9999 17.5489 29.2547 17.8227 29.4311 18.146C29.6075 18.4693 29.7 18.8316 29.7 19.1999ZM29.8364 29.9579C29.6098 30.139 29.3208 30.2233 29.0324 30.1924C28.744 30.1615 28.4795 30.0179 28.2964 29.7929L28.2898 29.7863C28.1944 29.6809 28.0938 29.5803 27.9884 29.4849C27.6453 29.1762 27.2716 28.9035 26.873 28.6709C25.8588 28.0769 24.2616 27.4499 22.0044 27.4499C19.7472 27.4499 18.1478 28.0747 17.1292 28.6731C16.7299 28.9057 16.3555 29.1785 16.0116 29.4871C15.9054 29.5824 15.804 29.683 15.708 29.7885L15.7014 29.7951C15.6104 29.9073 15.4982 30.0006 15.3711 30.0694C15.2441 30.1383 15.1047 30.1815 14.961 30.1965C14.8173 30.2115 14.672 30.1981 14.5335 30.1569C14.395 30.1158 14.2659 30.0478 14.1537 29.9568C14.0415 29.8658 13.9482 29.7536 13.8794 29.6265C13.8105 29.4995 13.7673 29.3602 13.7523 29.2164C13.7373 29.0727 13.7507 28.9275 13.7919 28.7889C13.833 28.6504 13.901 28.5213 13.992 28.4091L14.85 29.0999L13.992 28.4113V28.4091L13.9964 28.4069L14.0008 28.4025L14.0118 28.3893L14.0426 28.3497L14.1504 28.2309C14.2384 28.1363 14.366 28.0065 14.5332 27.8569C14.8676 27.5533 15.3582 27.1639 16.016 26.7767C17.336 26.0001 19.316 25.2499 22.0044 25.2499C24.6906 25.2499 26.6684 25.9979 27.9884 26.7767C28.6484 27.1639 29.1368 27.5533 29.469 27.8547C29.6408 28.0113 29.8038 28.1773 29.9574 28.3519L29.9904 28.3893L30.0014 28.4025L30.0058 28.4091C30.0058 28.4113 30.008 28.4135 29.15 29.0999L30.008 28.4135C30.1897 28.6412 30.2737 28.9317 30.2415 29.2212C30.2094 29.5107 30.0637 29.7757 29.8364 29.9579ZM22 4.8999C17.3322 4.8999 12.8556 6.75418 9.55491 10.0548C6.25427 13.3555 4.39999 17.8321 4.39999 22.4999C4.39999 27.1677 6.25427 31.6443 9.55491 34.945C12.8556 38.2456 17.3322 40.0999 22 40.0999C26.6678 40.0999 31.1444 38.2456 34.4451 34.945C37.7457 31.6443 39.6 27.1677 39.6 22.4999C39.6 17.8321 37.7457 13.3555 34.4451 10.0548C31.1444 6.75418 26.6678 4.8999 22 4.8999ZM6.59999 22.4999C6.59999 20.4775 6.99833 18.475 7.77225 16.6066C8.54617 14.7382 9.68053 13.0405 11.1105 11.6105C12.5406 10.1804 14.2383 9.04608 16.1067 8.27216C17.9751 7.49823 19.9776 7.0999 22 7.0999C24.0223 7.0999 26.0249 7.49823 27.8933 8.27216C29.7617 9.04608 31.4594 10.1804 32.8894 11.6105C34.3195 13.0405 35.4538 14.7382 36.2277 16.6066C37.0017 18.475 37.4 20.4775 37.4 22.4999C37.4 26.5842 35.7775 30.5013 32.8894 33.3893C30.0014 36.2774 26.0843 37.8999 22 37.8999C17.9157 37.8999 13.9986 36.2774 11.1105 33.3893C8.22249 30.5013 6.59999 26.5842 6.59999 22.4999Z" fill="#0E5879"/>
  </svg>
