<svg width="44" height="45" viewBox="0 0 44 45" fill="none" xmlns="http://www.w3.org/2000/svg">
  <path d="M22 2.94434C18.1323 2.94434 14.3514 4.09125 11.1355 6.24004C7.91961 8.38883 5.41313 11.443 3.93301 15.0163C2.4529 18.5896 2.06564 22.5216 2.82019 26.315C3.57475 30.1084 5.43723 33.5929 8.17213 36.3278C10.907 39.0627 14.3915 40.9251 18.1849 41.6797C21.9783 42.4343 25.9103 42.047 29.4836 40.5669C33.0569 39.0868 36.1111 36.5803 38.2598 33.3644C40.4086 30.1485 41.5555 26.3676 41.5555 22.4999C41.5555 17.3134 39.4952 12.3394 35.8279 8.67203C32.1605 5.00465 27.1865 2.94434 22 2.94434ZM22 39.611C18.6157 39.611 15.3075 38.6075 12.4936 36.7273C9.67966 34.8471 7.48649 32.1747 6.19139 29.048C4.89629 25.9214 4.55743 22.4809 5.21767 19.1617C5.8779 15.8425 7.50758 12.7935 9.90061 10.4005C12.2936 8.00748 15.3426 6.3778 18.6618 5.71757C21.981 5.05733 25.4215 5.39619 28.5481 6.69129C31.6748 7.98639 34.3472 10.1796 36.2274 12.9935C38.1076 15.8074 39.1111 19.1156 39.1111 22.4999C39.1111 27.038 37.3083 31.3903 34.0994 34.5993C30.8904 37.8082 26.5381 39.611 22 39.611Z" fill="#0E5879"/>
  <path d="M13.31 19.9211C14.66 19.9211 15.7545 18.8267 15.7545 17.4767C15.7545 16.1266 14.66 15.0322 13.31 15.0322C11.96 15.0322 10.8656 16.1266 10.8656 17.4767C10.8656 18.8267 11.96 19.9211 13.31 19.9211Z" fill="#0E5879"/>
  <path d="M30.6167 19.9211C31.9667 19.9211 33.0611 18.8267 33.0611 17.4767C33.0611 16.1266 31.9667 15.0322 30.6167 15.0322C29.2666 15.0322 28.1722 16.1266 28.1722 17.4767C28.1722 18.8267 29.2666 19.9211 30.6167 19.9211Z" fill="#0E5879"/>
  <path d="M22.1589 34.9788C24.4011 34.9818 26.5864 34.2734 28.4005 32.9557C30.2146 31.6379 31.5639 29.7787 32.2544 27.6455H12.0633C12.7538 29.7787 14.1032 31.6379 15.9173 32.9557C17.7314 34.2734 19.9167 34.9818 22.1589 34.9788Z" fill="#0E5879"/>
  </svg>
