<svg width="44" height="45" viewBox="0 0 44 45" fill="none" xmlns="http://www.w3.org/2000/svg">
  <path d="M22 2.94434C18.1323 2.94434 14.3514 4.09125 11.1355 6.24004C7.91961 8.38883 5.41313 11.443 3.93301 15.0163C2.4529 18.5896 2.06564 22.5216 2.82019 26.315C3.57475 30.1084 5.43723 33.5929 8.17213 36.3278C10.907 39.0627 14.3915 40.9251 18.1849 41.6797C21.9783 42.4343 25.9103 42.047 29.4836 40.5669C33.0569 39.0868 36.1111 36.5803 38.2598 33.3644C40.4086 30.1485 41.5555 26.3676 41.5555 22.4999C41.5555 17.3134 39.4952 12.3394 35.8279 8.67203C32.1605 5.00465 27.1865 2.94434 22 2.94434ZM22 39.611C18.6157 39.611 15.3075 38.6075 12.4936 36.7273C9.67966 34.8471 7.48649 32.1747 6.19139 29.048C4.89629 25.9214 4.55743 22.4809 5.21767 19.1617C5.8779 15.8425 7.50758 12.7935 9.90061 10.4005C12.2936 8.00748 15.3426 6.3778 18.6618 5.71757C21.981 5.05733 25.4215 5.39619 28.5481 6.69129C31.6748 7.98639 34.3472 10.1796 36.2274 12.9935C38.1076 15.8074 39.1111 19.1156 39.1111 22.4999C39.1111 27.038 37.3083 31.3903 34.0994 34.5993C30.8904 37.8082 26.5381 39.611 22 39.611Z" fill="#0E5879"/>
  <path d="M30.7511 20.1534C31.9661 20.1534 32.9511 19.1684 32.9511 17.9534C32.9511 16.7384 31.9661 15.7534 30.7511 15.7534C29.5361 15.7534 28.5511 16.7384 28.5511 17.9534C28.5511 19.1684 29.5361 20.1534 30.7511 20.1534Z" fill="#0E5879"/>
  <path d="M13.9455 20.1534C15.1606 20.1534 16.1455 19.1684 16.1455 17.9534C16.1455 16.7384 15.1606 15.7534 13.9455 15.7534C12.7305 15.7534 11.7455 16.7384 11.7455 17.9534C11.7455 19.1684 12.7305 20.1534 13.9455 20.1534Z" fill="#0E5879"/>
  <path d="M22.1955 24.9443C20.4421 24.9446 18.7142 25.3641 17.1558 26.1678C15.5974 26.9714 14.2536 28.136 13.2367 29.5643C13.0487 29.8285 12.9733 30.1566 13.0272 30.4763C13.081 30.7961 13.2597 31.0813 13.5239 31.2693C13.7881 31.4573 14.1161 31.5327 14.4359 31.4788C14.7556 31.425 15.0409 31.2463 15.2289 30.9821C16.0104 29.8845 17.0401 28.9869 18.2341 28.3625C19.4282 27.7382 20.7528 27.4047 22.1002 27.3892C23.4475 27.3737 24.7795 27.6767 25.9876 28.2734C27.1956 28.8702 28.2457 29.7438 29.0522 30.8232C29.2467 31.0825 29.5363 31.254 29.8571 31.2998C30.178 31.3457 30.504 31.2622 30.7633 31.0677C31.0227 30.8732 31.1941 30.5836 31.2399 30.2627C31.2858 29.9418 31.2023 29.6159 31.0078 29.3566C29.9832 27.9865 28.6532 26.8743 27.1234 26.1084C25.5937 25.3424 23.9063 24.9439 22.1955 24.9443Z" fill="#0E5879"/>
  </svg>
