<svg width="46" height="46" viewBox="0 0 46 46" fill="none" xmlns="http://www.w3.org/2000/svg">
  <path d="M23 4.3125C13.5125 4.3125 5.75 11.9313 5.75 21.275V29.4688C5.75 31.3375 7.33125 32.9187 9.2 32.9187C11.0688 32.9187 12.9375 34.0688 12.9375 35.9375V40.25C19.6937 42.4062 26.3063 42.4062 33.0625 40.25V35.9375C33.0625 34.0688 34.9313 32.9187 36.8 32.9187C38.6688 32.9187 40.25 31.3375 40.25 29.4688V21.275C40.25 11.9313 32.4875 4.3125 23 4.3125Z" stroke="#0E5879" stroke-width="2" stroke-miterlimit="10" stroke-linecap="round" stroke-linejoin="round"/>
  <path d="M24.4375 33.0625L23 30.1875L21.5625 33.0625" stroke="#0E5879" stroke-width="2" stroke-miterlimit="10" stroke-linecap="round" stroke-linejoin="round"/>
  <path d="M17.3938 29.7563L15.6687 30.1875C13.5125 30.475 11.5 28.8938 11.5 26.7375V26.45C11.5 24.5812 13.0812 23 14.95 23H16.675C18.975 23 20.5562 25.1562 19.9812 27.3125C19.6937 28.4625 18.6875 29.4688 17.3938 29.7563Z" stroke="#0E5879" stroke-width="2" stroke-miterlimit="10" stroke-linecap="round" stroke-linejoin="round"/>
  <path d="M28.6062 29.7563L30.3312 30.0437C32.4875 30.475 34.5 28.8938 34.5 26.7375V26.45C34.5 24.5812 32.9187 23 31.05 23H29.325C27.025 23 25.4437 25.1562 26.0187 27.3125C26.3062 28.4625 27.3125 29.4688 28.6062 29.7563Z" stroke="#0E5879" stroke-width="2" stroke-miterlimit="10" stroke-linecap="round" stroke-linejoin="round"/>
  </svg>
