<svg width="44" height="45" viewBox="0 0 44 45" fill="none" xmlns="http://www.w3.org/2000/svg">
  <path d="M22 1.875C10.6095 1.875 1.375 11.1095 1.375 22.5C1.375 33.8905 10.6095 43.125 22 43.125C33.3905 43.125 42.625 33.8905 42.625 22.5C42.625 11.1095 33.3905 1.875 22 1.875ZM22 41.4062C11.5747 41.4062 3.09375 32.9252 3.09375 22.5C3.09375 12.0747 11.5747 3.59375 22 3.59375C32.4252 3.59375 40.9062 12.0747 40.9062 22.5C40.9062 32.9252 32.4252 41.4062 22 41.4062Z" fill="#0E5879"/>
  <path d="M22 36.3457C24.6579 36.3457 26.8125 34.1911 26.8125 31.5332C26.8125 28.8753 24.6579 26.7207 22 26.7207C19.3421 26.7207 17.1875 28.8753 17.1875 31.5332C17.1875 34.1911 19.3421 36.3457 22 36.3457Z" fill="#0E5879"/>
  <path d="M13.9205 20.812C15.6291 20.812 17.0143 19.4269 17.0143 17.7183C17.0143 16.0096 15.6291 14.6245 13.9205 14.6245C12.2119 14.6245 10.8268 16.0096 10.8268 17.7183C10.8268 19.4269 12.2119 20.812 13.9205 20.812Z" fill="#0E5879"/>
  <path d="M29.3906 20.812C31.0993 20.812 32.4844 19.4269 32.4844 17.7183C32.4844 16.0096 31.0993 14.6245 29.3906 14.6245C27.682 14.6245 26.2969 16.0096 26.2969 17.7183C26.2969 19.4269 27.682 20.812 29.3906 20.812Z" fill="#0E5879"/>
  </svg>
