<svg width="81" height="74" viewBox="0 0 81 74" fill="none" xmlns="http://www.w3.org/2000/svg">
<path d="M51.7625 16.0458C51.5305 16.2782 51.255 16.4625 50.9517 16.5883C50.6484 16.7141 50.3233 16.7788 49.995 16.7788C49.6666 16.7788 49.3415 16.7141 49.0382 16.5883C48.735 16.4625 48.4594 16.2782 48.2275 16.0458C47.542 15.3581 46.7272 14.813 45.83 14.4419C44.9327 14.0707 43.9709 13.8809 43 13.8833C40.95 13.8833 39.1175 14.7058 37.7725 16.0458C37.5404 16.2779 37.2648 16.462 36.9615 16.5877C36.6583 16.7133 36.3332 16.7779 36.005 16.7779C35.342 16.7779 34.7063 16.5146 34.2375 16.0458C34.0054 15.8137 33.8213 15.5381 33.6956 15.2349C33.57 14.9316 33.5054 14.6066 33.5054 14.2783C33.5054 13.6154 33.7687 12.9796 34.2375 12.5108C35.3875 11.3593 36.7535 10.4461 38.2571 9.82359C39.7608 9.2011 41.3726 8.88156 43 8.88331C44.6274 8.88156 46.2392 9.2011 47.7428 9.82359C49.2465 10.4461 50.6125 11.3593 51.7625 12.5108C52.2312 12.9796 52.4944 13.6154 52.4944 14.2783C52.4944 14.9412 52.2312 15.577 51.7625 16.0458ZM22.735 13.6583C20.5272 14.9495 18.53 16.5707 16.8125 18.4658L16.81 18.4683C15.088 20.3717 13.6689 22.5286 12.6025 24.8633C11.5084 27.2595 10.8038 29.815 10.515 32.4333C10.4789 32.7596 10.5074 33.0899 10.5989 33.4052C10.6904 33.7205 10.8432 34.0147 11.0484 34.271C11.2536 34.5273 11.5073 34.7407 11.795 34.8989C12.0826 35.0572 12.3987 35.1572 12.725 35.1933C13.0513 35.2294 13.3816 35.2009 13.6969 35.1094C14.0122 35.0179 14.3064 34.8651 14.5627 34.6599C14.819 34.4547 15.0323 34.201 15.1906 33.9133C15.3488 33.6257 15.4489 33.3096 15.485 32.9833C15.7165 30.8926 16.2794 28.8521 17.1525 26.9383C18.8663 23.1871 21.697 20.0569 25.2575 17.9758C25.541 17.8102 25.7891 17.5903 25.9876 17.3288C26.1861 17.0673 26.3312 16.7693 26.4145 16.4517C26.4979 16.1341 26.5179 15.8032 26.4733 15.4779C26.4288 15.1526 26.3206 14.8393 26.155 14.5558C25.9894 14.2723 25.7695 14.0242 25.508 13.8257C25.2465 13.6272 24.9484 13.4821 24.6309 13.3988C23.9895 13.2304 23.3075 13.3238 22.735 13.6583ZM60.5 41.5808C60.5 40.9178 60.7634 40.2819 61.2322 39.813C61.7011 39.3442 62.3369 39.0808 63 39.0808C63.663 39.0808 64.2989 39.3442 64.7677 39.813C65.2366 40.2819 65.5 40.9178 65.5 41.5808C65.4965 43.8363 64.6208 46.003 63.056 47.6274C61.4912 49.2518 59.3588 50.208 57.105 50.2958C57.6625 51.4433 58 52.7183 58 54.0808C58 54.7438 57.7366 55.3797 57.2677 55.8486C56.7989 56.3174 56.163 56.5808 55.5 56.5808C54.8369 56.5808 54.2011 56.3174 53.7322 55.8486C53.2634 55.3797 53 54.7438 53 54.0808C52.9987 53.0866 52.6031 52.1336 51.9002 51.4306C51.1972 50.7276 50.2441 50.3321 49.25 50.3308H33.795C33.1319 50.3308 32.4961 50.0674 32.0272 49.5986C31.5584 49.1297 31.295 48.4938 31.295 47.8308C31.295 47.1678 31.5584 46.5319 32.0272 46.063C32.4961 45.5942 33.1319 45.3308 33.795 45.3308H39.25C40.2439 45.3288 41.1966 44.9331 41.8994 44.2303C42.6023 43.5274 42.998 42.5748 43 41.5808C43 40.9178 43.2634 40.2819 43.7322 39.813C44.2011 39.3442 44.8369 39.0808 45.5 39.0808C46.163 39.0808 46.7989 39.3442 47.2677 39.813C47.7366 40.2819 48 40.9178 48 41.5808C48 42.9283 47.67 44.1908 47.125 45.3308H56.75C57.7439 45.3288 58.6966 44.9331 59.3994 44.2303C60.1023 43.5274 60.498 42.5748 60.5 41.5808Z" fill="#0E5879"/>
<path d="M80.5 39.6083C80.5 38.0383 80.3875 36.5183 80.215 35.0433C77.9475 15.4983 61.37 0.335811 41.2225 0.330811L38.1425 0.330811C17.35 0.333311 0.5025 17.1808 0.5 37.9733C0.5 39.9244 0.884301 41.8564 1.63096 43.659C2.37762 45.4616 3.47201 47.0995 4.85166 48.4791C7.63798 51.2655 11.417 52.8308 15.3575 52.8308H18.46C19.3008 56.3875 21.3171 59.5565 24.1826 61.8249C27.0481 64.0934 30.5953 65.3287 34.25 65.3308H52.01L59.8 73.1208C60.0622 73.3827 60.3962 73.561 60.7597 73.6332C61.1231 73.7054 61.4999 73.6683 61.8423 73.5265C62.1847 73.3847 62.4774 73.1447 62.6835 72.8366C62.8895 72.5286 62.9997 72.1664 63 71.7958V65.1233C66.8429 64.6448 70.4637 63.0593 73.4216 60.5599C76.3796 58.0605 78.547 54.755 79.66 51.0458C80.0175 49.8508 80.2225 48.5908 80.3525 47.3083L80.36 47.2883C80.43 47.0583 80.5 46.8308 80.5 46.5808C80.5 46.4283 80.49 46.2758 80.48 46.1258L80.4625 45.8383C80.4625 45.7583 80.4725 45.6808 80.48 45.6058C80.49 45.5133 80.5 45.4233 80.5 45.3308V39.6083ZM74.87 49.6183C73.947 52.7128 72.0499 55.4268 69.4609 57.3569C66.872 59.2869 63.7292 60.3299 60.5 60.3308H34.25C31.4444 60.3305 28.7403 59.2815 26.6685 57.3896C24.5967 55.4978 23.307 52.8998 23.0525 50.1058L23.0375 49.9458C23.1211 46.6988 24.4717 43.6135 26.8007 41.3495C29.1296 39.0855 32.252 37.8225 35.5 37.8308C36.163 37.8308 36.7989 37.5674 37.2678 37.0986C37.7366 36.6297 38 35.9938 38 35.3308C38 34.6678 37.7366 34.0319 37.2678 33.563C36.7989 33.0942 36.163 32.8308 35.5 32.8308C32.5637 32.8269 29.6741 33.5657 27.1 34.9783C26.6076 33.8742 25.9199 32.8681 25.07 32.0083C24.6012 31.5395 23.9654 31.2762 23.3025 31.2762C22.6396 31.2762 22.0038 31.5395 21.535 32.0083C21.0662 32.4771 20.8029 33.1129 20.8029 33.7758C20.8029 34.4387 21.0662 35.0745 21.535 35.5433C22.245 36.2558 22.7275 37.1683 22.91 38.1908C20.3669 40.83 18.719 44.2027 18.2 47.8308H15.3575C14.0624 47.8327 12.7796 47.5786 11.583 47.083C10.3864 46.5875 9.2996 45.8603 8.385 44.9433C7.46841 44.029 6.74166 42.9426 6.24653 41.7464C5.75141 40.5502 5.4977 39.2679 5.5 37.9733C5.5 28.9508 9.15 20.8058 15.06 14.8908C18.0875 11.8546 21.6854 9.44695 25.6468 7.80628C29.6082 6.16561 33.8548 5.32433 38.1425 5.33081H41.2225C57.9475 5.32581 71.8375 17.3308 74.85 33.1783C72.0951 30.4871 68.5766 28.7121 64.775 28.0958C66.0325 25.7908 66.75 23.1433 66.75 20.3308C66.75 19.6678 66.4866 19.0319 66.0178 18.563C65.5489 18.0942 64.913 17.8308 64.25 17.8308C63.5869 17.8308 62.9511 18.0942 62.4822 18.563C62.0134 19.0319 61.75 19.6678 61.75 20.3308C61.7526 21.8086 61.4628 23.2722 60.8973 24.6375C60.3318 26.0028 59.5018 27.2427 58.455 28.2858C57.4119 29.3326 56.172 30.1626 54.8067 30.7281C53.4414 31.2936 51.9778 31.5834 50.5 31.5808C49.837 31.5808 49.2011 31.8442 48.7322 32.313C48.2634 32.7819 48 33.4178 48 34.0808C48 34.7438 48.2634 35.3797 48.7322 35.8486C49.2011 36.3174 49.837 36.5808 50.5 36.5808C54.365 36.5831 58.1032 35.2014 61.0375 32.6858L61.0775 32.6983C61.2937 32.7762 61.5204 32.8209 61.75 32.8308C65.555 32.8308 68.9775 34.3658 71.4725 36.8583C73.868 39.2547 75.2896 42.4543 75.4625 45.8383C75.427 47.1184 75.2279 48.3887 74.87 49.6183Z" fill="#0E5879"/>
</svg>
