<svg width="42" height="41" viewBox="0 0 42 41" fill="none" xmlns="http://www.w3.org/2000/svg">
  <path d="M23.502 16.8564C22.5545 16.8564 21.8203 17.5731 21.8203 18.458C21.8203 19.3429 22.5545 20.0596 23.502 20.0596C24.3674 20.0596 25.1016 19.3429 25.1016 18.458C25.1016 17.5731 24.3674 16.8564 23.502 16.8564ZM12.0176 16.8564C11.0701 16.8564 10.3359 17.5731 10.3359 18.458C10.3359 19.3429 11.0701 20.0596 12.0176 20.0596C12.883 20.0596 13.6172 19.3429 13.6172 18.458C13.6172 17.5731 12.883 16.8564 12.0176 16.8564Z" fill="#0E5879"/>
  <path d="M36.6679 13.8136C34.6951 11.171 31.9388 9.40526 28.916 8.60848V8.61248C28.2146 7.85174 27.423 7.15106 26.5371 6.52645C19.8228 1.7618 10.3974 3.21522 5.49603 9.76961C1.54623 15.0948 1.71439 22.2578 5.74213 27.3468L5.77494 32.6559C5.77494 32.7841 5.79545 32.9122 5.83646 33.0323C6.05385 33.709 6.79213 34.0813 7.48119 33.8691L12.6738 32.2716C14.0478 32.748 15.4669 33.0203 16.8779 33.0964L16.8574 33.1124C20.5119 35.7109 25.3025 36.4917 29.6953 35.0743L34.9083 36.7319C35.0396 36.772 35.1749 36.796 35.3144 36.796C36.0404 36.796 36.6269 36.2234 36.6269 35.5147V30.1495C40.2404 25.3608 40.3347 18.7424 36.6679 13.8136ZM13.248 29.4288L12.7558 29.2286L8.69525 30.4698L8.65424 26.3057L8.32611 25.9454C4.85619 21.8134 4.6265 15.8596 7.87494 11.4913C11.8288 6.19813 19.4085 5.02899 24.8144 8.84872C30.2367 12.6965 31.4384 20.0837 27.5214 25.3448C24.2361 29.7451 18.3544 31.3707 13.248 29.4288ZM33.9609 28.7481L33.6328 29.1485L33.6738 33.3126L29.6542 31.9913L29.1621 32.1915C26.8652 33.0243 24.4165 33.0924 22.1484 32.4718L22.1402 32.4678C25.1712 31.5589 27.9193 29.7171 29.9003 27.0665C33.0339 22.8504 33.5425 17.5532 31.7214 13.0368L31.746 13.0528C32.6894 13.7135 33.5548 14.5383 34.289 15.5352C37.2667 19.5231 37.0986 24.9524 33.9609 28.7481Z" fill="#0E5879"/>
  <path d="M17.7598 16.8564C16.8123 16.8564 16.0781 17.5731 16.0781 18.458C16.0781 19.3429 16.8123 20.0596 17.7598 20.0596C18.6252 20.0596 19.3594 19.3429 19.3594 18.458C19.3594 17.5731 18.6252 16.8564 17.7598 16.8564Z" fill="#0E5879"/>
  </svg>
