<svg width="185" height="184" viewBox="0 0 185 184" fill="none" xmlns="http://www.w3.org/2000/svg">
<circle cx="92.5" cy="92" r="90.5" stroke="#0E5879" stroke-width="3"/>
<path d="M60.2652 124.235V58.3712H93.197V91.3031H126.129V96.0076C129.422 96.0076 132.574 96.6192 135.538 97.6542V77.1894L107.311 48.9622H60.2652C55.0431 48.9622 50.8561 53.1492 50.8561 58.3712V124.235C50.8561 126.73 51.8474 129.124 53.6119 130.888C55.3765 132.653 57.7697 133.644 60.2652 133.644H99.5481C98.5131 130.68 97.9015 127.528 97.9015 124.235H60.2652ZM102.606 56.019L128.481 81.894H102.606V56.019ZM144.947 119.53V128.939H130.833V143.053H121.424V128.939H107.311V119.53H121.424V105.417H130.833V119.53H144.947Z" fill="#0E5879"/>
</svg>
