<svg xmlns="http://www.w3.org/2000/svg" width="32" height="50" viewBox="0 0 32 50" fill="none">
  <path d="M1.72721 21.192C1.86305 21.192 2.00117 21.1753 2.13887 21.1406L7.5143 19.7814C7.93651 19.6746 8.29918 19.4076 8.52331 19.0391L10.1772 16.3136V47.4802C10.1772 48.8722 11.3221 49.9998 12.7334 49.9998C14.1452 49.9998 15.29 48.8722 15.29 47.4802V29.0822H16.2484V47.4802C16.2484 48.8722 17.3932 49.9998 18.8046 49.9998C20.2164 49.9998 21.3612 48.8722 21.3612 47.4802V16.3391L23 19.0393C23.2238 19.4072 23.5864 19.6748 24.0086 19.7816L29.3847 21.1402C29.5226 21.175 29.6607 21.1918 29.7968 21.1918C30.5339 21.1918 31.2061 20.7024 31.3977 19.9661C31.6243 19.0936 31.0915 18.205 30.2066 17.9818L25.4893 16.7893L22.4623 11.8011C21.9931 11.0283 20.9777 10.7766 20.1936 11.2388C20.1157 11.2849 20.0446 11.3372 19.9774 11.3931C19.8479 11.583 19.7053 11.7632 19.5514 11.9334C19.5419 11.9529 19.5339 11.9729 19.5252 11.9927H19.4975C18.571 12.9858 17.2429 13.6095 15.7695 13.6095C14.2959 13.6095 12.9681 12.9858 12.0416 11.9927H11.9978C11.982 11.9566 11.9647 11.9211 11.9463 11.8865C11.8164 11.7391 11.6946 11.5851 11.5828 11.4236C11.5057 11.3556 11.4215 11.2934 11.3295 11.2392C10.5455 10.7768 9.53004 11.0289 9.06089 11.8015V11.8011L6.03326 16.7891L1.31699 17.9816C0.431629 18.205 -0.101614 19.0938 0.125412 19.9659C0.317082 20.7022 0.989683 21.1918 1.72721 21.192Z" fill="#0E5879"/>
  <path d="M15.7694 13.2021C18.3387 13.2021 20.4215 11.149 20.4215 8.61645C20.4215 6.08384 18.3387 4.03076 15.7694 4.03076C13.2 4.03076 11.1172 6.08384 11.1172 8.61645C11.1172 11.149 13.2 13.2021 15.7694 13.2021Z" fill="#0E5879"/>
  <path d="M22.4166 6.52838C22.5929 6.56384 22.7968 6.53714 23.0273 6.4493C23.2587 6.36105 23.3929 6.22736 23.4295 6.04739C23.4768 5.81852 23.3683 5.66872 23.1045 5.59718C22.9808 5.47 22.8721 5.39704 22.7778 5.37788C22.6425 5.35098 22.5301 5.35995 22.4412 5.4056C22.4101 5.42374 22.3692 5.44249 22.3198 5.46226C22.0508 5.57497 21.9034 5.69786 21.8757 5.83136C21.8426 5.99379 21.8777 6.14114 21.9821 6.27403C22.0861 6.4065 22.2313 6.49149 22.4166 6.52838Z" fill="#0E5879"/>
  <path d="M22.9547 4.74337C23.2076 4.79392 23.3945 4.79412 23.5157 4.74235C23.6364 4.6914 23.7268 4.59317 23.7874 4.44826C23.9048 4.17597 24.0243 3.94628 24.1455 3.75959C24.9357 3.65504 25.4599 3.5725 25.7173 3.51074C25.9753 3.4494 26.2206 3.29899 26.454 3.06053C26.687 2.82167 26.8477 2.48661 26.937 2.05453L26.9378 2.05005C27.0129 1.65751 27.0247 1.36077 26.9742 1.16063C26.9238 0.960286 26.7602 0.722442 26.4832 0.44669C26.3167 0.274268 26.0671 0.162174 25.7345 0.110406C25.5629 0.082077 25.3912 0.0525248 25.2202 0.0211384C24.9746 -0.022069 24.7281 0.000961349 24.48 0.0902293L24.4846 0.0910446C24.1939 0.178071 23.9422 0.303209 23.7291 0.467274C23.5163 0.631544 23.3939 0.790514 23.3621 0.943982C23.3093 1.19935 23.4181 1.35384 23.6892 1.40826C24.1037 1.49121 24.3568 1.40744 24.4482 1.15696C24.4786 1.08502 24.5586 1.02082 24.6878 0.965178C24.8171 0.909946 25.0406 0.913818 25.3582 0.97761C25.4669 0.999214 25.5726 1.03834 25.6739 1.095C25.7756 1.15146 25.8416 1.20486 25.8709 1.25418C25.9005 1.30391 25.9206 1.41784 25.9315 1.59494C25.9425 1.77205 25.9379 1.91024 25.9175 2.00847C25.8887 2.14828 25.8246 2.28157 25.7247 2.40916C25.6247 2.53715 25.5188 2.61256 25.4065 2.63539L24.7637 2.74687C24.3574 2.81576 24.0797 2.87221 23.9319 2.91481C23.7834 2.95761 23.6149 3.02975 23.4255 3.13023C23.1718 3.45408 23.0116 3.67012 22.9454 3.77916C22.8782 3.88819 22.8307 4.01048 22.8026 4.14723C22.7763 4.27441 22.7744 4.40138 22.7978 4.52876C22.8193 4.65533 22.8724 4.72687 22.9547 4.74337Z" fill="#0E5879"/>
</svg>
