<svg width="81" height="81" viewBox="0 0 81 81" fill="none" xmlns="http://www.w3.org/2000/svg">
<path fill-rule="evenodd" clip-rule="evenodd" d="M62.3067 34.2667C62.3067 35.3198 62.2444 36.3604 62.1384 37.3823H68.4007C69.0401 30.3676 67.5026 23.3263 63.9974 17.2166C60.4922 11.107 55.1896 6.22579 48.8112 3.23736C42.4328 0.248942 35.2886 -0.701539 28.3507 0.515282C21.4129 1.7321 15.0185 5.05712 10.0378 10.0378C5.05712 15.0185 1.7321 21.4129 0.515282 28.3507C-0.701539 35.2886 0.248942 42.4328 3.23736 48.8112C6.22579 55.1896 11.107 60.4922 17.2166 63.9974C23.3263 67.5026 30.3676 69.0401 37.3823 68.4007V62.1384C31.7388 62.7694 26.0369 61.672 21.0308 58.9915C16.0247 56.311 11.9504 52.1737 9.34703 47.1271C6.74368 42.0804 5.73394 36.3623 6.45144 30.7292C7.16893 25.0961 9.57983 19.8137 13.3651 15.5808C17.1504 11.3478 22.1317 8.36398 27.6499 7.02397C33.1681 5.68397 38.9632 6.05099 44.2682 8.07646C49.5733 10.1019 54.1383 13.6904 57.3594 18.3671C60.5804 23.0437 62.3056 28.5881 62.3067 34.2667ZM21.8045 31.1511C23.4571 31.1511 25.042 30.4947 26.2105 29.3261C27.3791 28.1575 28.0356 26.5726 28.0356 24.92C28.0356 23.2674 27.3791 21.6825 26.2105 20.514C25.042 19.3454 23.4571 18.6889 21.8045 18.6889C20.1519 18.6889 18.567 19.3454 17.3984 20.514C16.2299 21.6825 15.5734 23.2674 15.5734 24.92C15.5734 26.5726 16.2299 28.1575 17.3984 29.3261C18.567 30.4947 20.1519 31.1511 21.8045 31.1511ZM34.2667 46.7289C38.7032 46.7289 42.7099 44.872 45.545 41.8936L49.9504 46.3052C47.9187 48.413 45.4824 50.0889 42.7874 51.2324C40.0924 52.376 37.1943 52.9636 34.2667 52.96C31.2812 52.9637 28.327 52.3526 25.588 51.1648C22.849 49.977 20.3839 48.2379 18.3462 46.056L22.7516 41.6443C24.2102 43.2481 25.9882 44.529 27.9713 45.4047C29.9544 46.2804 32.0988 46.7314 34.2667 46.7289ZM46.7289 31.1511C48.3815 31.1511 49.9664 30.4947 51.135 29.3261C52.3035 28.1575 52.96 26.5726 52.96 24.92C52.96 23.2674 52.3035 21.6825 51.135 20.514C49.9664 19.3454 48.3815 18.6889 46.7289 18.6889C45.0763 18.6889 43.4914 19.3454 42.3229 20.514C41.1543 21.6825 40.4978 23.2674 40.4978 24.92C40.4978 26.5726 41.1543 28.1575 42.3229 29.3261C43.4914 30.4947 45.0763 31.1511 46.7289 31.1511ZM62.3067 49.8445H68.5378V62.3067H81V68.5378H68.5378V81H62.3067V68.5378H49.8445V62.3067H62.3067V49.8445Z" fill="#0E5879"/>
</svg>
