<svg width="42" height="43" viewBox="0 0 42 43" fill="none" xmlns="http://www.w3.org/2000/svg">
  <path fill-rule="evenodd" clip-rule="evenodd" d="M31.6576 18.191C31.6576 18.75 31.6263 19.3024 31.5732 19.8449H34.7151C35.036 16.1211 34.2645 12.3831 32.5059 9.13969C30.7472 5.8963 28.0867 3.30505 24.8865 1.7186C21.6862 0.132154 18.1017 -0.372422 14.6208 0.273545C11.1399 0.919512 7.9316 2.68464 5.43264 5.32871C2.93368 7.97277 1.26541 11.3673 0.654896 15.0504C0.044378 18.7334 0.521264 22.5261 2.02065 25.9121C3.52003 29.2982 5.96909 32.1131 9.03449 33.9739C12.0999 35.8347 15.6327 36.6509 19.1522 36.3115V32.9871C16.3207 33.322 13.4599 32.7395 10.9482 31.3165C8.43643 29.8935 6.39224 27.6972 5.08606 25.0181C3.77988 22.339 3.27326 19.3034 3.63325 16.313C3.99324 13.3226 5.20286 10.5184 7.10207 8.27127C9.00128 6.02416 11.5006 4.44014 14.2692 3.72878C17.0379 3.01742 19.9454 3.21225 22.6071 4.2875C25.2688 5.36276 27.5593 7.26775 29.1754 9.75041C30.7914 12.2331 31.657 15.1764 31.6576 18.191ZM11.3364 16.537C12.1655 16.537 12.9607 16.1885 13.547 15.5682C14.1333 14.9478 14.4627 14.1065 14.4627 13.2292C14.4627 12.3519 14.1333 11.5105 13.547 10.8901C12.9607 10.2698 12.1655 9.92128 11.3364 9.92128C10.5072 9.92128 9.712 10.2698 9.1257 10.8901C8.5394 11.5105 8.21001 12.3519 8.21001 13.2292C8.21001 14.1065 8.5394 14.9478 9.1257 15.5682C9.712 16.1885 10.5072 16.537 11.3364 16.537ZM17.589 24.8067C19.815 24.8067 21.8252 23.821 23.2477 22.2398L25.458 24.5818C24.4387 25.7007 23.2163 26.5904 21.8641 27.1975C20.512 27.8045 19.0579 28.1165 17.589 28.1146C16.0911 28.1165 14.6089 27.7921 13.2347 27.1615C11.8604 26.531 10.6236 25.6078 9.60124 24.4495L11.8116 22.1075C12.5434 22.9589 13.4354 23.6389 14.4304 24.1037C15.4254 24.5686 16.5014 24.808 17.589 24.8067ZM23.8417 16.537C24.6709 16.537 25.4661 16.1885 26.0524 15.5682C26.6387 14.9478 26.9681 14.1065 26.9681 13.2292C26.9681 12.3519 26.6387 11.5105 26.0524 10.8901C25.4661 10.2698 24.6709 9.92128 23.8417 9.92128C23.0126 9.92128 22.2174 10.2698 21.6311 10.8901C21.0448 11.5105 20.7154 12.3519 20.7154 13.2292C20.7154 14.1065 21.0448 14.9478 21.6311 15.5682C22.2174 16.1885 23.0126 16.537 23.8417 16.537ZM31.6576 26.4606H34.7839V33.0764H41.0366V36.3843H34.7839V43H31.6576V36.3843H25.4049V33.0764H31.6576V26.4606Z" fill="#0E5879"/>
  </svg>
