<svg width="184" height="184" viewBox="0 0 184 184" fill="none" xmlns="http://www.w3.org/2000/svg">
<circle cx="92" cy="92" r="90.5" stroke="#0E5879" stroke-width="3"/>
<path d="M64.4697 105.417C60.565 105.417 57.0366 107.016 54.4961 109.557C48.9447 115.108 45.6516 138.349 45.6516 138.349C45.6516 138.349 68.892 135.055 74.4434 129.504C76.4239 127.534 77.7743 125.019 78.3231 122.28C78.8718 119.541 78.5942 116.7 77.5255 114.119C76.4567 111.538 74.645 109.333 72.3205 107.783C69.9959 106.234 67.2634 105.41 64.4697 105.417ZM67.81 122.871C66.4927 124.188 57.6011 126.446 57.6011 126.446C57.6011 126.446 59.8122 117.601 61.1766 116.237C61.9763 115.343 63.1525 114.826 64.4697 114.826C65.4012 114.827 66.3113 115.104 67.0856 115.622C67.8599 116.139 68.4637 116.875 68.8209 117.735C69.178 118.595 69.2726 119.542 69.0927 120.456C68.9128 121.37 68.4665 122.21 67.81 122.871ZM118.196 99.0655C148.117 69.1446 138.143 45.8571 138.143 45.8571C138.143 45.8571 114.855 35.8835 84.9345 65.8044L73.2202 63.4521C71.6974 63.1598 70.1264 63.2426 68.6427 63.6934C67.1591 64.1442 65.8076 64.9495 64.705 66.0396L45.6516 85.1401L69.1743 95.2078L88.7922 114.826L98.86 138.349L117.913 119.295C120.125 117.084 121.112 113.885 120.501 110.78L118.196 99.0655ZM71.1031 85.7987L62.1175 81.941L71.3854 72.673L78.16 74.0374C75.4784 77.9421 73.0791 82.0351 71.1031 85.7987ZM102.059 121.883L98.2013 112.897C101.965 110.921 106.058 108.522 109.916 105.84L111.28 112.615L102.059 121.883ZM111.515 92.4321C105.305 98.6421 95.6138 103.723 92.5088 105.276L78.7245 91.4912C80.23 88.4333 85.3109 78.7419 91.5679 72.4849C113.585 50.4676 130.286 53.7137 130.286 53.7137C130.286 53.7137 133.532 70.4149 111.515 92.4321ZM106.811 86.5985C111.986 86.5985 116.22 82.3644 116.22 77.1894C116.22 72.0144 111.986 67.7803 106.811 67.7803C101.636 67.7803 97.4016 72.0144 97.4016 77.1894C97.4016 82.3644 101.636 86.5985 106.811 86.5985Z" fill="#0E5879"/>
</svg>
