<svg width="185" height="184" viewBox="0 0 185 184" fill="none" xmlns="http://www.w3.org/2000/svg">
<circle cx="92.5" cy="92" r="90.5" stroke="#0E5879" stroke-width="3"/>
<path d="M84.2113 108.192L90.8447 114.826L114.367 91.3031L90.8447 67.7803L84.2113 74.4137L96.349 86.5985H50.8561V96.0076H96.349L84.2113 108.192ZM126.129 48.9622H60.2652C57.7697 48.9622 55.3765 49.9535 53.6119 51.718C51.8474 53.4826 50.8561 55.8758 50.8561 58.3712V77.1894H60.2652V58.3712H126.129V124.235H60.2652V105.417H50.8561V124.235C50.8561 126.73 51.8474 129.124 53.6119 130.888C55.3765 132.653 57.7697 133.644 60.2652 133.644H126.129C131.304 133.644 135.538 129.41 135.538 124.235V58.3712C135.538 53.1962 131.304 48.9622 126.129 48.9622Z" fill="#0E5879"/>
</svg>
