<svg width="81" height="78" viewBox="0 0 81 78" fill="none" xmlns="http://www.w3.org/2000/svg">
<path d="M44.2332 4.74054L44.2328 4.74033C43.6254 4.43706 42.5968 4.26288 40.9301 4.18858L40.9299 4.18858L38.4945 4.08868L38.4424 4.08655V4.13864V11.422C38.4424 15.5238 38.3926 17.9252 38.1693 19.6645C37.9465 21.4008 37.5508 22.4769 36.8564 23.9279L36.8563 23.9281C35.3697 27.0758 32.9895 29.7284 29.6654 31.9616L29.6648 31.962C28.0532 33.0778 24.5038 34.8158 22.7683 35.3609L44.2332 4.74054ZM44.2332 4.74054C45.46 5.36686 46.4377 6.34351 47.0387 7.49631L47.0388 7.49663C48.0643 9.49863 48.2373 11.302 48.2373 20.2459C48.2373 24.2363 48.2435 26.366 48.3055 27.5668C48.3366 28.1674 48.3815 28.5321 48.4454 28.7797C48.5086 29.0246 48.5903 29.1548 48.6982 29.2866L48.6987 29.2872L49.1562 29.8654M44.2332 4.74054L49.1562 29.8654M49.1562 29.8654L60.2926 29.989C60.7275 29.9942 61.1467 29.9991 61.5508 30.0039C66.9544 30.0674 69.6733 30.0993 71.2701 30.3282C72.1302 30.4515 72.6693 30.6324 73.1285 30.9084C73.5294 31.1494 73.8678 31.4622 74.3039 31.8654C74.3652 31.922 74.4283 31.9804 74.4938 32.0405L74.4943 32.041C75.8689 33.3409 76.5714 34.6683 76.7471 36.3471L76.7471 36.348C76.7554 36.4433 76.7445 36.6458 76.7184 36.9368C76.692 37.2296 76.6497 37.6167 76.5934 38.0846C76.4809 39.0203 76.3126 40.2803 76.105 41.7581C75.6898 44.7136 75.1172 48.541 74.5191 52.3892C73.9209 56.2375 73.2971 60.1069 72.7793 63.1463C72.5204 64.666 72.288 65.9784 72.0985 66.977C71.9093 67.9739 71.7623 68.662 71.674 68.9299M49.1562 29.8654L22.0673 70.03C22.8683 71.6309 24.0449 72.7825 25.7206 73.5328C26.1672 73.7369 26.7947 73.8419 29.5466 73.8978C32.3032 73.9537 37.2007 73.9599 46.1985 73.9599H65.7112H65.7208L65.7298 73.9563L67.2207 73.3603L67.2022 73.3138M71.674 68.9299C71.6741 68.9298 71.6741 68.9296 71.6742 68.9295L71.6266 68.9143L71.674 68.9299ZM71.674 68.9299C71.3975 69.7972 70.7705 70.711 69.9716 71.5037C69.1722 72.2969 68.1973 72.9722 67.2208 73.3603L67.2022 73.3138M67.2022 73.3138L65.7112 73.9099L67.2022 73.3138ZM15.9481 34.0662L15.9718 34.0222C15.9239 33.9964 15.8431 33.9748 15.7402 33.9554C15.6353 33.9357 15.5016 33.9174 15.3435 33.9003C15.0272 33.8662 14.6106 33.8371 14.1271 33.813C13.1598 33.7649 11.9225 33.7369 10.6791 33.7307C9.43577 33.7244 8.18586 33.7399 7.1936 33.7786C6.69753 33.798 6.26532 33.8231 5.93031 33.8544C5.76284 33.87 5.6191 33.8872 5.50354 33.9061C5.38904 33.9248 5.29873 33.9456 5.24024 33.9696L5.24001 33.9697C5.08403 34.0345 4.9178 34.1502 4.77221 34.2833C4.62692 34.4161 4.49894 34.5691 4.42082 34.7116C4.41137 34.7274 4.40401 34.7476 4.3978 34.7693C4.3912 34.7923 4.385 34.8203 4.3791 34.8529C4.36728 34.9181 4.35612 35.0046 4.34553 35.1119C4.32432 35.3268 4.30505 35.6285 4.28756 36.0182C4.25258 36.7978 4.22463 37.9317 4.20291 39.431C4.15946 42.4297 4.14088 46.8917 4.14088 52.907V70.5803V70.6016L4.15628 70.6164L4.77719 71.2118L4.77928 71.2139C4.92615 71.3671 5.04283 71.4888 5.21579 71.58C5.3898 71.6718 5.61693 71.731 5.98444 71.7701C6.71722 71.8481 8.03026 71.8481 10.6453 71.8481H10.6536H10.6618C13.2765 71.8481 14.5893 71.8481 15.3221 71.7701C15.6896 71.731 15.9168 71.6718 16.0909 71.58C16.264 71.4888 16.3808 71.3671 16.5279 71.214L16.53 71.2118L17.1509 70.6164L17.1663 70.6016V70.5803V52.8574V52.8573C17.1653 52.1195 17.1645 51.4115 17.1636 50.7322C17.154 42.7975 17.1491 38.7755 17.0202 36.673C16.9503 35.5338 16.8438 34.9492 16.6752 34.6103C16.5218 34.302 16.3163 34.1976 16.0652 34.07C16.0345 34.0545 16.0032 34.0385 15.9712 34.0219L15.9481 34.0662ZM15.9481 34.0662C15.3025 33.7186 6.10542 33.6691 5.25919 34.0158L15.9481 34.0662ZM34.8591 1.40272L34.8593 1.40279L34.8573 1.40612C34.8528 1.41357 34.8448 1.43596 34.8354 1.48052C34.8264 1.52282 34.8173 1.57941 34.8082 1.65007C34.7899 1.79124 34.7717 1.98553 34.7539 2.22752C34.7182 2.71133 34.6841 3.3833 34.653 4.1971C34.5909 5.82457 34.5412 8.01768 34.516 10.4037L34.516 10.4039C34.4665 14.033 34.4167 16.2276 34.3359 17.6612C34.255 19.095 34.1428 19.7705 33.9674 20.36L33.9671 20.361C32.4195 25.2028 28.1542 29.039 21.6334 31.5033L21.6333 31.5033L20.0424 32.1002L20.0129 32.1113L19.9902 32.0895L19.3437 31.4678L19.343 31.4671C19.0014 31.1255 18.2117 30.6307 17.5932 30.3589L17.5923 30.3584C17.0888 30.1251 16.6908 29.996 15.7516 29.925C14.8094 29.8537 13.3264 29.8413 10.6536 29.8413C7.98081 29.8413 6.49779 29.8537 5.55553 29.925C4.61634 29.996 4.21834 30.1251 3.71491 30.3584L3.71457 30.3586C2.35706 30.9759 1.37138 31.8881 0.680747 33.1702L0.68054 33.1706C0.545262 33.4166 0.445477 33.6039 0.368782 34.0269C0.291476 34.4532 0.237941 35.118 0.199087 36.3173C0.12152 38.7117 0.102679 43.2251 0.0652208 52.1977L0.0650575 52.2368L0.0150579 52.2366L0.0650574 52.2368C0.0402902 57.991 0.0464832 62.6017 0.0806381 65.845C0.097716 67.4668 0.121782 68.7464 0.152452 69.6561C0.167788 70.1111 0.184763 70.4731 0.203308 70.739C0.212583 70.872 0.222222 70.9805 0.232189 71.0644C0.242274 71.1492 0.252379 71.2059 0.261851 71.2369L0.261904 71.2369L0.262488 71.2392C0.681821 72.8912 1.79173 74.321 3.24549 75.1101L3.2455 75.1101L3.24592 75.1104L4.57732 75.8498L9.9583 75.9239L9.95845 75.9239C12.9419 75.9738 14.7958 75.9425 16.0834 75.7474C17.3675 75.5528 18.0857 75.1957 18.7988 74.5933L18.7989 74.5932L19.5692 73.9467L19.6027 73.9186L19.6351 73.9482L20.8026 75.0167C21.4701 75.5855 22.8329 76.4522 23.8485 76.9485C23.8485 76.9485 23.8486 76.9485 23.8486 76.9486L25.7023 77.8385L45.0791 77.9127C51.6536 77.9375 56.6246 77.9313 60.0856 77.8971C61.8161 77.8801 63.1688 77.856 64.1556 77.8253C65.1437 77.7946 65.7616 77.7573 66.025 77.7144C70.6822 76.922 74.0713 74.2232 75.4812 70.24L75.5283 70.2567L75.4812 70.24C75.5141 70.1472 75.5643 69.945 75.63 69.6416C75.6955 69.3393 75.7757 68.9395 75.8687 68.4538C76.0546 67.4825 76.2915 66.1685 76.5633 64.6057C77.107 61.4802 77.7906 57.3604 78.4865 52.9981L78.5359 53.006L78.4865 52.9981C79.7176 45.3176 80.3517 41.3356 80.6438 39.0685C80.9357 36.8029 80.8855 36.2551 80.7495 35.4416C80.1057 31.8033 77.8784 28.8094 74.5625 27.1761L74.5623 27.176L72.6837 26.2367L62.5786 26.1625L52.4618 26.0882L52.413 26.0878L52.4122 26.039L52.2875 18.1596V18.1595C52.2256 13.8833 52.1573 11.4629 51.9371 9.76992C51.7173 8.08032 51.3465 7.1162 50.677 5.7524C49.3666 3.08239 46.5714 0.954277 43.5037 0.285927C42.7629 0.137436 41.6048 0.0565643 40.4441 0.0503845C39.2833 0.0441971 38.1253 0.112747 37.3844 0.261177C36.6405 0.409874 36.0668 0.576767 35.6493 0.767136C35.2309 0.957909 34.9759 1.16924 34.8591 1.40272ZM22.0672 70.0297L21.2971 68.5134L21.2916 68.5027V68.4908V52.1598V35.8561V35.8193L21.3268 35.8083L22.7681 35.3609L22.0672 70.0297Z" fill="#0E5879" stroke="#0E5879" stroke-width="0.1"/>
</svg>
