<svg width="37" height="43" viewBox="0 0 37 43" fill="none" xmlns="http://www.w3.org/2000/svg">
  <path d="M12.2989 4.09524V0H24.7011V4.09524H12.2989ZM14.3659 28.1548L12.0922 23.65C11.9199 23.2746 11.6615 22.9927 11.317 22.8043C10.9725 22.616 10.6108 22.5224 10.2318 22.5238H0C0.51676 17.9167 2.53212 14.0344 6.04609 10.877C9.56006 7.71952 13.7114 6.14149 18.5 6.14286C20.6359 6.14286 22.6858 6.48413 24.6494 7.16667C26.6131 7.84921 28.4562 8.83889 30.1788 10.1357L33.0726 7.26905L35.9665 10.1357L33.0726 13.0024C34.175 14.4357 35.0535 15.9462 35.7081 17.5338C36.3627 19.1213 36.7933 20.7847 37 22.5238H28.0601L24.4944 15.4595C24.1155 14.6746 23.4953 14.2821 22.6341 14.2821C21.7728 14.2821 21.1527 14.6746 20.7737 15.4595L14.3659 28.1548ZM18.5 43C13.7114 43 9.56006 41.4213 6.04609 38.2639C2.53212 35.1064 0.51676 31.2248 0 26.619H8.93994L12.5056 33.6833C12.8845 34.4683 13.5047 34.8607 14.3659 34.8607C15.2272 34.8607 15.8473 34.4683 16.2263 33.6833L22.6341 20.9881L24.9078 25.4929C25.0801 25.8683 25.3385 26.1501 25.683 26.3385C26.0275 26.5269 26.3892 26.6204 26.7682 26.619H37C36.4832 31.2262 34.4679 35.1078 30.9539 38.2639C27.4399 41.4199 23.2886 42.9986 18.5 43Z" fill="#0E5879"/>
  </svg>
