<svg width="31" height="34" viewBox="0 0 31 34" fill="none" xmlns="http://www.w3.org/2000/svg">
<path d="M30.7914 21.7799C29.5948 19.2734 27.6676 17.1915 25.2866 15.7114C23.8312 14.8067 22.838 13.3157 22.7063 11.624C22.6679 11.1297 22.5888 10.6311 22.4656 10.1311C21.2873 5.35063 16.3395 2.18181 11.392 3.0438C6.12148 3.9621 2.55803 8.8858 3.42618 14.0642C3.48805 14.4331 3.57102 14.7931 3.67367 15.1433C4.16603 16.8237 3.82846 18.6124 2.78045 20.0389C1.27999 22.0812 0.306424 24.4479 0.0150994 26.9494C-0.158019 28.4358 1.18388 29.6597 2.68589 29.4054L29.0511 24.9419C30.5371 24.6905 31.4287 23.1149 30.7914 21.7799Z" fill="#0E5879"/>
<path d="M30.7914 21.7799C29.5948 19.2734 27.6676 17.1915 25.2866 15.7114C23.8312 14.8067 22.838 13.3157 22.7063 11.624C22.6679 11.1297 22.5888 10.6311 22.4656 10.1311C21.2873 5.35063 16.3395 2.18181 11.392 3.0438C6.12148 3.9621 2.55803 8.8858 3.42618 14.0642C3.48805 14.4331 3.57102 14.7931 3.67367 15.1433C4.16603 16.8237 3.82846 18.6124 2.78045 20.0389C1.27999 22.0812 0.306424 24.4479 0.0150994 26.9494C-0.158019 28.4358 1.18388 29.6597 2.68589 29.4054L29.0511 24.9419C30.5371 24.6905 31.4287 23.1149 30.7914 21.7799Z" stroke="#0E5879"/>
<path d="M6.20001 30.4931C6.20021 30.4987 6.20033 30.5042 6.20044 30.5098C6.2008 30.5273 6.20115 30.5447 6.20428 30.5624C6.60779 32.8308 9.04911 34.3402 11.6575 33.9339C14.2658 33.5277 16.0534 31.3596 15.6498 29.0913C15.6466 29.0736 15.641 29.0571 15.6352 29.0404C15.6334 29.0351 15.6316 29.0298 15.6298 29.0244L6.20001 30.4931Z" fill="#0E5879"/>
<path d="M6.20001 30.4931C6.20021 30.4987 6.20033 30.5042 6.20044 30.5098C6.2008 30.5273 6.20115 30.5447 6.20428 30.5624C6.60779 32.8308 9.04911 34.3402 11.6575 33.9339C14.2658 33.5277 16.0534 31.3596 15.6498 29.0913C15.6466 29.0736 15.641 29.0571 15.6352 29.0404C15.6334 29.0351 15.6316 29.0298 15.6298 29.0244L6.20001 30.4931Z" stroke="#0E5879"/>
<path d="M23.56 3.93902C23.56 6.11449 21.802 7.87805 19.6333 7.87805C17.4647 7.87805 15.7067 6.11449 15.7067 3.93902C15.7067 1.76356 17.4647 0 19.6333 0C21.802 0 23.56 1.76356 23.56 3.93902Z" fill="#FF4343"/>
<path d="M23.56 3.93902C23.56 6.11449 21.802 7.87805 19.6333 7.87805C17.4647 7.87805 15.7067 6.11449 15.7067 3.93902C15.7067 1.76356 17.4647 0 19.6333 0C21.802 0 23.56 1.76356 23.56 3.93902Z" stroke="#0E5879"/>
</svg>
