<svg width="40" height="40" viewBox="0 0 40 40" fill="none" xmlns="http://www.w3.org/2000/svg">
  <path fill-rule="evenodd" clip-rule="evenodd" d="M31.6668 6.66659H8.3335C7.89147 6.66659 7.46755 6.84218 7.15499 7.15474C6.84242 7.4673 6.66683 7.89122 6.66683 8.33325V31.6666C6.66683 32.1086 6.84242 32.5325 7.15499 32.8451C7.46755 33.1577 7.89147 33.3333 8.3335 33.3333H31.6668C32.1089 33.3333 32.5328 33.1577 32.8453 32.8451C33.1579 32.5325 33.3335 32.1086 33.3335 31.6666V8.33325C33.3335 7.89122 33.1579 7.4673 32.8453 7.15474C32.5328 6.84218 32.1089 6.66659 31.6668 6.66659ZM8.3335 3.33325C7.00741 3.33325 5.73564 3.86004 4.79796 4.79772C3.86028 5.7354 3.3335 7.00717 3.3335 8.33325V31.6666C3.3335 32.9927 3.86028 34.2644 4.79796 35.2021C5.73564 36.1398 7.00741 36.6666 8.3335 36.6666H31.6668C32.9929 36.6666 34.2647 36.1398 35.2024 35.2021C36.14 34.2644 36.6668 32.9927 36.6668 31.6666V8.33325C36.6668 7.00717 36.14 5.7354 35.2024 4.79772C34.2647 3.86004 32.9929 3.33325 31.6668 3.33325H8.3335Z" fill="#0E5879"/>
  <path d="M18.3337 11.6665H21.667V28.3332H18.3337V11.6665ZM25.0003 21.6665H28.3337V28.3332H25.0003V21.6665ZM11.667 16.6665H15.0003V28.3332H11.667V16.6665Z" fill="#0E5879"/>
  </svg>
