<svg width="56" height="56" viewBox="0 0 56 56" fill="none" xmlns="http://www.w3.org/2000/svg">
  <path fill-rule="evenodd" clip-rule="evenodd" d="M44.3333 9.33335H11.6666C11.0478 9.33335 10.4543 9.57919 10.0167 10.0168C9.57913 10.4544 9.33329 11.0478 9.33329 11.6667V44.3334C9.33329 44.9522 9.57913 45.5457 10.0167 45.9833C10.4543 46.4209 11.0478 46.6667 11.6666 46.6667H44.3333C44.9521 46.6667 45.5456 46.4209 45.9832 45.9833C46.4208 45.5457 46.6666 44.9522 46.6666 44.3334V11.6667C46.6666 11.0478 46.4208 10.4544 45.9832 10.0168C45.5456 9.57919 44.9521 9.33335 44.3333 9.33335ZM11.6666 4.66669C9.81011 4.66669 8.02963 5.40419 6.71688 6.71694C5.40412 8.02969 4.66663 9.81017 4.66663 11.6667V44.3334C4.66663 46.1899 5.40412 47.9704 6.71688 49.2831C8.02963 50.5959 9.81011 51.3334 11.6666 51.3334H44.3333C46.1898 51.3334 47.9703 50.5959 49.283 49.2831C50.5958 47.9704 51.3333 46.1899 51.3333 44.3334V11.6667C51.3333 9.81017 50.5958 8.02969 49.283 6.71694C47.9703 5.40419 46.1898 4.66669 44.3333 4.66669H11.6666Z" fill="#0E5879"/>
  <path d="M25.6666 16.3334H30.3333V39.6667H25.6666V16.3334ZM34.9999 30.3334H39.6666V39.6667H34.9999V30.3334ZM16.3333 23.3334H20.9999V39.6667H16.3333V23.3334Z" fill="#0E5879"/>
  </svg>
