<svg xmlns="http://www.w3.org/2000/svg" width="35" height="49" viewBox="0 0 35 49" fill="none">
  <g clip-path="url(#clip0_827_1212)">
    <path d="M23.4768 38.283V47.4685C23.4563 48.3056 22.7768 48.9793 21.9368 48.9997H12.6804C12.2749 48.9899 11.8887 48.8259 11.6017 48.5417C11.3146 48.2574 11.1488 47.8747 11.1383 47.4726V38.2851C11.1589 37.448 11.8383 36.7763 12.6804 36.7559H21.9451C22.7892 36.7763 23.4686 37.45 23.4892 38.2851L23.4768 38.283ZM35.6713 15.3204C35.6737 17.7423 34.9872 20.1157 33.6907 22.1682L33.7216 22.1151C33.1296 22.9618 32.4222 23.7231 31.6195 24.3772L31.5989 24.3936C30.938 24.9693 30.2154 25.5165 29.4536 26.0147L29.3795 26.0596C28.8126 26.4039 28.0275 26.8565 27.0242 27.4173C25.9637 28.0169 25.0635 28.8598 24.3992 29.8754L24.3807 29.904C23.8032 30.6398 23.4368 31.5166 23.3204 32.4418L23.3183 32.4663C23.3115 32.9226 23.1473 33.3629 22.853 33.7138L22.8551 33.7097C22.7361 33.8867 22.576 34.0328 22.3883 34.1358C22.2006 34.2389 21.9907 34.2958 21.7763 34.3018H12.5116C12.298 34.2868 12.0928 34.2134 11.9187 34.0898C11.7447 33.9661 11.6085 33.7971 11.5254 33.6015L11.5233 33.5933C11.2623 33.1597 11.1223 32.665 11.1177 32.1601V30.4349C11.1635 28.1953 12.0597 26.0553 13.6274 24.4426L13.6254 24.4446C15.1209 22.712 16.968 21.3115 19.0463 20.3347L19.1451 20.2939C20.3625 19.8089 21.4657 19.0798 22.3857 18.1522L22.3877 18.1502C23.0628 17.3298 23.4069 16.2901 23.3533 15.2326V15.2428C23.32 14.6624 23.1398 14.0996 22.8292 13.6064C22.5187 13.1133 22.0879 12.7057 21.5766 12.4212L21.558 12.4131C20.3363 11.5844 18.8831 11.1567 17.4033 11.1901H17.4095C15.927 11.132 14.4621 11.5253 13.2116 12.3171L13.2404 12.2987C11.7196 13.5871 10.3513 15.0426 9.16185 16.6373L9.11038 16.7087C8.97274 16.896 8.79296 17.0489 8.58531 17.1552C8.37766 17.2615 8.14788 17.3184 7.9142 17.3212C7.56731 17.3104 7.23052 17.2028 6.94244 17.0109L6.94861 17.015L0.619789 12.2314C0.304763 12.004 0.0907784 11.6645 0.0227301 11.284L0.0206713 11.2759C-0.0443515 10.903 0.0326967 10.5195 0.236848 10.1999L0.23273 10.206C3.6442 4.08307 10.113 0.00585938 17.5454 0.00585938C17.7574 0.00585938 17.9674 0.00994271 18.1774 0.0160677H18.1466C20.3154 0.0267713 22.4627 0.443781 24.4754 1.24515L24.358 1.20432C26.4072 1.97328 28.3225 3.05553 30.0342 4.41178L29.993 4.37911C31.6472 5.69819 33.0227 7.32793 34.0407 9.17498L34.0818 9.25869C35.0763 11.0084 35.663 13.0991 35.6651 15.3245L35.6713 15.3204Z" fill="#0E5879"/>
  </g>
  <defs>
    <clipPath id="clip0_827_1212">
      <rect width="35" height="49" fill="white"/>
    </clipPath>
  </defs>
</svg>
