<svg width="71" height="83" viewBox="0 0 71 83" fill="none" xmlns="http://www.w3.org/2000/svg">
<path d="M40.6 58C40.6 56.65 40.721 55.679 40.963 55.087C41.205 54.495 41.7173 53.8493 42.5 53.15C43.1833 52.55 43.7043 52.029 44.063 51.587C44.4216 51.145 44.6006 50.641 44.6 50.075C44.6 49.3917 44.371 48.825 43.913 48.375C43.455 47.925 42.8173 47.7 42 47.7C41.15 47.7 40.504 47.9583 40.062 48.475C39.62 48.9917 39.308 49.5167 39.126 50.05L36.55 48.95C36.9 47.8833 37.5416 46.9583 38.475 46.175C39.4083 45.3917 40.5833 45 42 45C43.75 45 45.096 45.4877 46.038 46.463C46.98 47.4383 47.4506 48.609 47.45 49.975C47.45 50.8083 47.271 51.521 46.913 52.113C46.555 52.705 45.9923 53.3757 45.225 54.125C44.4083 54.9083 43.9126 55.5043 43.738 55.913C43.5633 56.3217 43.4756 57.0173 43.475 58H40.6ZM42 64C41.45 64 40.9793 63.804 40.588 63.412C40.1966 63.02 40.0006 62.5493 40 62C40 61.45 40.196 60.979 40.588 60.587C40.98 60.195 41.4506 59.9993 42 60C42.55 60 43.021 60.196 43.413 60.588C43.805 60.98 44.0006 61.4507 44 62C44 62.55 43.804 63.021 43.412 63.413C43.02 63.805 42.5493 64.0007 42 64Z" fill="#0E5879"/>
<path fill-rule="evenodd" clip-rule="evenodd" d="M38.9807 4C36.7445 4 34.9769 5.78214 34.9769 7.925V37.55C34.9769 38.6546 34.0814 39.55 32.9769 39.55C31.8723 39.55 30.9769 38.6546 30.9769 37.55V19.775C30.9769 17.6321 29.2092 15.85 26.973 15.85C24.7368 15.85 22.9692 17.6321 22.9692 19.775V53.35C22.9692 54.1565 22.4848 54.8841 21.7407 55.1952C20.9966 55.5063 20.1384 55.34 19.5643 54.7735L12.4792 47.7813C10.5394 45.8671 7.38356 45.867 5.44375 47.7813C3.47511 49.7242 3.52579 52.8789 5.55844 54.7595L25.4055 73.1219C29.4845 76.8958 34.8711 79 40.4725 79H44.9846C57.1683 79 67 69.2597 67 57.3V23.725C67 21.5821 65.2323 19.8 62.9961 19.8C60.7599 19.8 58.9923 21.5821 58.9923 23.725V37.55C58.9923 38.6546 58.0968 39.55 56.9923 39.55C55.8877 39.55 54.9923 38.6546 54.9923 37.55V11.875C54.9923 9.73214 53.2246 7.95 50.9884 7.95C48.7522 7.95 46.9846 9.73214 46.9846 11.875V37.55C46.9846 38.6546 46.0891 39.55 44.9846 39.55C43.88 39.55 42.9846 38.6546 42.9846 37.55V7.925C42.9846 5.78214 41.2169 4 38.9807 4ZM46.5328 5.29133C45.4334 2.19825 42.4525 0 38.9807 0C34.5855 0 30.9769 3.52326 30.9769 7.925V12.9123C29.7967 12.2361 28.428 11.85 26.973 11.85C22.5776 11.85 18.9692 15.3733 18.9692 19.775V48.5663L15.2889 44.9342C11.7914 41.4827 6.13165 41.4827 2.63414 44.9342C-0.958795 48.4801 -0.863428 54.2674 2.84198 57.6956L22.6891 76.058C27.5124 80.5206 33.8708 83 40.4725 83H44.9846C59.3274 83 71 71.5185 71 57.3V23.725C71 19.3233 67.3914 15.8 62.9961 15.8C61.5412 15.8 60.1724 16.1861 58.9923 16.8623V11.875C58.9923 7.47326 55.3837 3.95 50.9884 3.95C49.3438 3.95 47.8093 4.4433 46.5328 5.29133Z" fill="#0E5879"/>
</svg>
