<svg width="262" height="218" viewBox="0 0 262 218" fill="none" xmlns="http://www.w3.org/2000/svg">
<path d="M251.083 0H10.9167C8.02139 0 5.24469 1.14839 3.19742 3.19254C1.15015 5.23668 0 8.00914 0 10.9L0 207.1C0 209.991 1.15015 212.763 3.19742 214.807C5.24469 216.852 8.02139 218 10.9167 218H251.083C253.979 218 256.755 216.852 258.803 214.807C260.85 212.763 262 209.991 262 207.1V10.9C262 8.00914 260.85 5.23668 258.803 3.19254C256.755 1.14839 253.979 0 251.083 0ZM240.167 196.2H218.333V185.3H163.75V196.2H21.8333V21.8H240.167V196.2ZM112.333 84.039C112.333 79.0956 114.299 74.3547 117.8 70.8592C121.301 67.3637 126.049 65.4 131 65.4C141.371 65.4 149.668 73.793 149.668 84.039C149.668 94.394 141.371 102.787 131 102.787C120.629 102.787 112.333 94.394 112.333 84.039ZM62.3342 101.261C62.3342 93.522 68.6658 87.2 76.4167 87.2C80.1516 87.2 83.7335 88.6814 86.3745 91.3184C89.0155 93.9553 90.4992 97.5318 90.4992 101.261C90.4992 109 84.1675 115.213 76.4167 115.213C68.6658 115.213 62.3342 109 62.3342 101.261ZM171.501 101.261C171.501 97.5318 172.985 93.9553 175.625 91.3184C178.266 88.6814 181.848 87.2 185.583 87.2C189.318 87.2 192.9 88.6814 195.541 91.3184C198.182 93.9553 199.666 97.5318 199.666 101.261C199.666 109 193.334 115.213 185.583 115.213C177.833 115.213 171.501 109 171.501 101.261ZM218.333 143.226V152.6H43.6667V143.226C43.6667 132.98 60.5875 124.587 76.4167 124.587C82.4208 124.587 88.5342 125.786 93.8833 127.857C102.071 120.336 116.808 115.213 131 115.213C145.192 115.213 159.929 120.336 168.117 127.857C173.466 125.786 179.579 124.587 185.583 124.587C201.413 124.587 218.333 132.98 218.333 143.226Z" fill="#0E5879"/>
</svg>
