<svg width="184" height="184" viewBox="0 0 184 184" fill="none" xmlns="http://www.w3.org/2000/svg">
<circle cx="92" cy="92" r="90.5" stroke="#0E5879" stroke-width="3"/>
<path d="M50.875 133.125V123.875H60.125V49.875H106.375V54.5H124.875V82.25H115.625V63.75H106.375V91.5H97.125V59.125H69.375V123.875H92.5V133.125H50.875ZM115.625 137.75L114.238 130.813C113.313 130.427 112.446 130.003 111.638 129.541C110.83 129.078 110.04 128.539 109.266 127.922L102.559 130.234L97.9344 122.256L103.138 117.631C102.983 116.475 102.906 115.491 102.906 114.681C102.906 113.87 102.983 112.888 103.138 111.734L97.9344 107.109L102.559 99.1313L109.266 101.444C110.036 100.827 110.827 100.267 111.638 99.7649C112.449 99.2623 113.316 98.8198 114.238 98.4375L115.625 91.5H124.875L126.263 98.4375C127.188 98.8229 128.055 99.2469 128.866 99.7094C129.677 100.172 130.467 100.711 131.234 101.328L137.941 99.0156L142.566 106.994L137.363 111.619C137.517 112.775 137.594 113.759 137.594 114.57C137.594 115.38 137.517 116.362 137.363 117.516L142.566 122.141L137.941 130.119L131.234 127.922C130.464 128.539 129.673 129.078 128.862 129.541C128.051 130.003 127.184 130.427 126.263 130.813L124.875 137.75H115.625ZM120.25 123.875C122.794 123.875 124.972 122.97 126.785 121.16C128.598 119.35 129.503 117.172 129.5 114.625C129.5 112.081 128.595 109.904 126.785 108.095C124.975 106.285 122.797 105.378 120.25 105.375C117.706 105.375 115.529 106.282 113.72 108.095C111.91 109.908 111.003 112.084 111 114.625C111 117.169 111.907 119.347 113.72 121.16C115.533 122.973 117.709 123.878 120.25 123.875ZM87.875 96.125C86.5646 96.125 85.4669 95.681 84.582 94.793C83.6971 93.905 83.2531 92.8073 83.25 91.5C83.25 90.1896 83.694 89.0919 84.582 88.207C85.47 87.3221 86.5677 86.8781 87.875 86.875C89.1854 86.875 90.2846 87.319 91.1726 88.207C92.0606 89.095 92.5031 90.1927 92.5 91.5C92.5 92.8104 92.056 93.9096 91.168 94.7976C90.28 95.6856 89.1823 96.1281 87.875 96.125Z" fill="#0E5879"/>
</svg>
