<svg width="184" height="184" viewBox="0 0 184 184" fill="none" xmlns="http://www.w3.org/2000/svg">
<circle cx="92" cy="92" r="90.5" stroke="#0E5879" stroke-width="3"/>
<path d="M87.5455 87.5455C87.4091 86.3939 86.8561 85.5 85.8864 84.8636C84.9167 84.2273 83.7273 83.9091 82.3182 83.9091C81.2879 83.9091 80.3864 84.0758 79.6136 84.4091C78.8485 84.7424 78.25 85.2008 77.8182 85.7841C77.3939 86.3674 77.1818 87.0303 77.1818 87.7727C77.1818 88.3939 77.3295 88.928 77.625 89.375C77.928 89.8144 78.3144 90.1818 78.7841 90.4773C79.2538 90.7652 79.7462 91.0038 80.2614 91.1932C80.7765 91.375 81.25 91.5227 81.6818 91.6364L84.0455 92.2727C84.6515 92.4318 85.3258 92.6515 86.0682 92.9318C86.8182 93.2121 87.5341 93.5947 88.2159 94.0795C88.9053 94.5568 89.4735 95.1705 89.9205 95.9205C90.3674 96.6705 90.5909 97.5909 90.5909 98.6818C90.5909 99.9394 90.2614 101.076 89.6023 102.091C88.9508 103.106 87.9962 103.913 86.7386 104.511C85.4886 105.11 83.9697 105.409 82.1818 105.409C80.5152 105.409 79.072 105.14 77.8523 104.602C76.6402 104.064 75.6856 103.314 74.9886 102.352C74.2992 101.39 73.9091 100.273 73.8182 99H76.7273C76.803 99.8788 77.0985 100.606 77.6136 101.182C78.1364 101.75 78.7955 102.174 79.5909 102.455C80.3939 102.727 81.2576 102.864 82.1818 102.864C83.2576 102.864 84.2235 102.689 85.0795 102.341C85.9356 101.985 86.6136 101.492 87.1136 100.864C87.6136 100.227 87.8636 99.4848 87.8636 98.6364C87.8636 97.8636 87.6477 97.2348 87.2159 96.75C86.7841 96.2652 86.2159 95.8712 85.5114 95.5682C84.8068 95.2652 84.0455 95 83.2273 94.7727L80.3636 93.9545C78.5455 93.4318 77.1061 92.6856 76.0455 91.7159C74.9848 90.7462 74.4545 89.4773 74.4545 87.9091C74.4545 86.6061 74.8068 85.4697 75.5114 84.5C76.2235 83.5227 77.178 82.7652 78.375 82.2273C79.5795 81.6818 80.9242 81.4091 82.4091 81.4091C83.9091 81.4091 85.2424 81.678 86.4091 82.2159C87.5758 82.7462 88.5 83.4735 89.1818 84.3977C89.8712 85.322 90.2348 86.3712 90.2727 87.5455H87.5455ZM95.2244 105V81.7273H109.27V84.2273H98.0426V92.0909H108.543V94.5909H98.0426V102.5H109.452V105H95.2244Z" fill="#0E5879"/>
</svg>
