<svg width="81" height="87" viewBox="0 0 81 87" fill="none" xmlns="http://www.w3.org/2000/svg">
<mask id="path-1-inside-1_316_369" fill="white">
<path d="M40.1539 6.69233C32.2122 6.69233 24.4488 9.04731 17.8456 13.4595C11.2423 17.8716 6.0957 24.1428 3.05655 31.48C0.0173981 38.8171 -0.777782 46.8907 0.771563 54.6798C2.32091 62.4689 6.14519 69.6236 11.7608 75.2392C17.3764 80.8548 24.5312 84.6791 32.3202 86.2285C40.1093 87.7778 48.1829 86.9826 55.5201 83.9435C62.8572 80.9043 69.1284 75.7577 73.5406 69.1544C77.9527 62.5512 80.3077 54.7878 80.3077 46.8462C80.2955 36.2004 76.0611 25.9942 68.5335 18.4666C61.0058 10.9389 50.7996 6.7045 40.1539 6.69233ZM40.1539 83.6539C32.874 83.6539 25.7576 81.4951 19.7046 77.4506C13.6516 73.4062 8.93388 67.6576 6.14799 60.9319C3.3621 54.2061 2.63319 46.8053 4.05342 39.6653C5.47365 32.5254 8.97925 25.9669 14.1269 20.8192C19.2745 15.6716 25.833 12.166 32.973 10.7457C40.113 9.3255 47.5138 10.0544 54.2395 12.8403C60.9653 15.6262 66.7138 20.3439 70.7583 26.3969C74.8028 32.4499 76.9615 39.5663 76.9615 46.8462C76.9506 56.6048 73.0691 65.9606 66.1687 72.861C59.2683 79.7614 49.9125 83.6429 40.1539 83.6539Z"/>
<path d="M33.5367 35.854C33.6726 36.1394 33.8867 36.3805 34.154 36.5493C34.4214 36.7181 34.7311 36.8077 35.0473 36.8076H41.8269C42.2706 36.8076 42.6962 36.6314 43.01 36.3176C43.3237 36.0038 43.5 35.5783 43.5 35.1346C43.5 34.6908 43.3237 34.2653 43.01 33.9515C42.6962 33.6378 42.2706 33.4615 41.8269 33.4615H38.5567L43.1267 27.8222C43.3256 27.5767 43.4509 27.2798 43.4881 26.966C43.5252 26.6522 43.4728 26.3343 43.3368 26.0491C43.2008 25.7639 42.9868 25.523 42.7196 25.3544C42.4524 25.1857 42.1429 25.0962 41.8269 25.0961H35.1346C34.6909 25.0961 34.2653 25.2724 33.9516 25.5861C33.6378 25.8999 33.4615 26.3254 33.4615 26.7692C33.4615 27.2129 33.6378 27.6385 33.9516 27.9522C34.2653 28.266 34.6909 28.4423 35.1346 28.4423H38.3173L33.7475 34.0815C33.5486 34.3269 33.4232 34.6236 33.3859 34.9373C33.3486 35.251 33.4009 35.5688 33.5367 35.854Z"/>
<path d="M55.2116 23.4231H51.9414L56.5114 17.7838C56.7103 17.5383 56.8355 17.2414 56.8727 16.9276C56.9099 16.6138 56.8575 16.2959 56.7215 16.0107C56.5855 15.7255 56.3715 15.4846 56.1043 15.3159C55.8371 15.1473 55.5276 15.0577 55.2116 15.0577H48.5193C48.0755 15.0577 47.65 15.234 47.3362 15.5477C47.0225 15.8615 46.8462 16.287 46.8462 16.7308C46.8462 17.1745 47.0225 17.6001 47.3362 17.9138C47.65 18.2276 48.0755 18.4038 48.5193 18.4038H51.702L47.1321 24.0431C46.9332 24.2887 46.808 24.5855 46.7708 24.8993C46.7336 25.2131 46.786 25.531 46.922 25.8162C47.058 26.1014 47.272 26.3423 47.5392 26.511C47.8064 26.6796 48.1159 26.7692 48.4319 26.7692H55.2116C55.6553 26.7692 56.0809 26.593 56.3946 26.2792C56.7084 25.9654 56.8846 25.5399 56.8846 25.0962C56.8846 24.6524 56.7084 24.2269 56.3946 23.9131C56.0809 23.5993 55.6553 23.4231 55.2116 23.4231Z"/>
<path d="M63.6521 10.7579C63.788 11.0433 64.0021 11.2844 64.2694 11.4532C64.5368 11.622 64.8465 11.7116 65.1627 11.7115H71.9423C72.386 11.7115 72.8116 11.5353 73.1254 11.2215C73.4391 10.9077 73.6154 10.4822 73.6154 10.0385C73.6154 9.59473 73.4391 9.16918 73.1254 8.85542C72.8116 8.54165 72.386 8.36538 71.9423 8.36538H68.6721L73.2421 2.72611C73.441 2.48057 73.5663 2.18372 73.6035 1.86993C73.6407 1.55614 73.5882 1.23824 73.4522 0.953013C73.3162 0.66779 73.1022 0.426911 72.835 0.258253C72.5678 0.0895962 72.2583 5.73434e-05 71.9423 0H65.25C64.8063 0 64.3807 0.17627 64.067 0.490033C63.7532 0.803796 63.5769 1.22935 63.5769 1.67308C63.5769 2.1168 63.7532 2.54236 64.067 2.85612C64.3807 3.16988 64.8063 3.34615 65.25 3.34615H68.4327L63.8629 8.98543C63.664 9.23083 63.5387 9.52753 63.5014 9.84119C63.4641 10.1549 63.5163 10.4727 63.6521 10.7579Z"/>
<path d="M33.3873 49.5388C33.5122 49.1164 33.4655 48.6618 33.2574 48.2736C33.0493 47.8855 32.6965 47.595 32.2756 47.4653C31.8546 47.3356 31.3995 47.3771 31.009 47.5809C30.6185 47.7846 30.3241 48.1341 30.1897 48.5535C30.0743 48.9252 29.8449 49.2511 29.5339 49.485C29.2229 49.719 28.8461 49.8491 28.457 49.8568C28.0679 49.8646 27.6863 49.7497 27.3662 49.5284C27.0461 49.307 26.8038 48.9905 26.6737 48.6238C26.5257 48.2054 26.2176 47.8629 25.8171 47.6717C25.4166 47.4805 24.9566 47.4562 24.5382 47.6042C24.1198 47.7522 23.7773 48.0603 23.5861 48.4608C23.3949 48.8613 23.3706 49.3213 23.5186 49.7397C23.8834 50.7698 24.5635 51.6588 25.4622 52.2804C26.361 52.902 27.4328 53.2246 28.5254 53.2024C29.618 53.1802 30.6758 52.8143 31.5486 52.1566C32.4213 51.499 33.0647 50.5829 33.3873 49.5388Z"/>
<path d="M55.7041 47.4474C55.4942 47.3822 55.2734 47.359 55.0545 47.3793C54.8356 47.3996 54.6229 47.463 54.4286 47.5658C54.2342 47.6686 54.0621 47.8087 53.9221 47.9782C53.7821 48.1477 53.677 48.3432 53.6128 48.5535C53.4974 48.9252 53.268 49.2511 52.957 49.485C52.646 49.719 52.2692 49.849 51.8801 49.8568C51.4911 49.8646 51.1094 49.7497 50.7893 49.5283C50.4692 49.307 50.2269 48.9905 50.0968 48.6238C49.9488 48.2054 49.6407 47.8629 49.2402 47.6717C48.8397 47.4805 48.3797 47.4562 47.9613 47.6042C47.5429 47.7522 47.2004 48.0603 47.0092 48.4608C46.818 48.8613 46.7937 49.3213 46.9417 49.7397C47.3065 50.7698 47.9866 51.6588 48.8854 52.2804C49.7841 52.902 50.8559 53.2246 51.9485 53.2024C53.0411 53.1802 54.0989 52.8142 54.9717 52.1566C55.8444 51.499 56.4878 50.583 56.8104 49.5389C56.941 49.1149 56.8979 48.6563 56.6904 48.2641C56.4829 47.8718 56.1282 47.5781 55.7041 47.4474Z"/>
</mask>
<path d="M40.1539 6.69233C32.2122 6.69233 24.4488 9.04731 17.8456 13.4595C11.2423 17.8716 6.0957 24.1428 3.05655 31.48C0.0173981 38.8171 -0.777782 46.8907 0.771563 54.6798C2.32091 62.4689 6.14519 69.6236 11.7608 75.2392C17.3764 80.8548 24.5312 84.6791 32.3202 86.2285C40.1093 87.7778 48.1829 86.9826 55.5201 83.9435C62.8572 80.9043 69.1284 75.7577 73.5406 69.1544C77.9527 62.5512 80.3077 54.7878 80.3077 46.8462C80.2955 36.2004 76.0611 25.9942 68.5335 18.4666C61.0058 10.9389 50.7996 6.7045 40.1539 6.69233ZM40.1539 83.6539C32.874 83.6539 25.7576 81.4951 19.7046 77.4506C13.6516 73.4062 8.93388 67.6576 6.14799 60.9319C3.3621 54.2061 2.63319 46.8053 4.05342 39.6653C5.47365 32.5254 8.97925 25.9669 14.1269 20.8192C19.2745 15.6716 25.833 12.166 32.973 10.7457C40.113 9.3255 47.5138 10.0544 54.2395 12.8403C60.9653 15.6262 66.7138 20.3439 70.7583 26.3969C74.8028 32.4499 76.9615 39.5663 76.9615 46.8462C76.9506 56.6048 73.0691 65.9606 66.1687 72.861C59.2683 79.7614 49.9125 83.6429 40.1539 83.6539Z" stroke="#0E5879" stroke-width="4" mask="url(#path-1-inside-1_316_369)"/>
<path d="M33.5367 35.854C33.6726 36.1394 33.8867 36.3805 34.154 36.5493C34.4214 36.7181 34.7311 36.8077 35.0473 36.8076H41.8269C42.2706 36.8076 42.6962 36.6314 43.01 36.3176C43.3237 36.0038 43.5 35.5783 43.5 35.1346C43.5 34.6908 43.3237 34.2653 43.01 33.9515C42.6962 33.6378 42.2706 33.4615 41.8269 33.4615H38.5567L43.1267 27.8222C43.3256 27.5767 43.4509 27.2798 43.4881 26.966C43.5252 26.6522 43.4728 26.3343 43.3368 26.0491C43.2008 25.7639 42.9868 25.523 42.7196 25.3544C42.4524 25.1857 42.1429 25.0962 41.8269 25.0961H35.1346C34.6909 25.0961 34.2653 25.2724 33.9516 25.5861C33.6378 25.8999 33.4615 26.3254 33.4615 26.7692C33.4615 27.2129 33.6378 27.6385 33.9516 27.9522C34.2653 28.266 34.6909 28.4423 35.1346 28.4423H38.3173L33.7475 34.0815C33.5486 34.3269 33.4232 34.6236 33.3859 34.9373C33.3486 35.251 33.4009 35.5688 33.5367 35.854Z" stroke="#0E5879" stroke-width="4" mask="url(#path-1-inside-1_316_369)"/>
<path d="M55.2116 23.4231H51.9414L56.5114 17.7838C56.7103 17.5383 56.8355 17.2414 56.8727 16.9276C56.9099 16.6138 56.8575 16.2959 56.7215 16.0107C56.5855 15.7255 56.3715 15.4846 56.1043 15.3159C55.8371 15.1473 55.5276 15.0577 55.2116 15.0577H48.5193C48.0755 15.0577 47.65 15.234 47.3362 15.5477C47.0225 15.8615 46.8462 16.287 46.8462 16.7308C46.8462 17.1745 47.0225 17.6001 47.3362 17.9138C47.65 18.2276 48.0755 18.4038 48.5193 18.4038H51.702L47.1321 24.0431C46.9332 24.2887 46.808 24.5855 46.7708 24.8993C46.7336 25.2131 46.786 25.531 46.922 25.8162C47.058 26.1014 47.272 26.3423 47.5392 26.511C47.8064 26.6796 48.1159 26.7692 48.4319 26.7692H55.2116C55.6553 26.7692 56.0809 26.593 56.3946 26.2792C56.7084 25.9654 56.8846 25.5399 56.8846 25.0962C56.8846 24.6524 56.7084 24.2269 56.3946 23.9131C56.0809 23.5993 55.6553 23.4231 55.2116 23.4231Z" stroke="#0E5879" stroke-width="4" mask="url(#path-1-inside-1_316_369)"/>
<path d="M63.6521 10.7579C63.788 11.0433 64.0021 11.2844 64.2694 11.4532C64.5368 11.622 64.8465 11.7116 65.1627 11.7115H71.9423C72.386 11.7115 72.8116 11.5353 73.1254 11.2215C73.4391 10.9077 73.6154 10.4822 73.6154 10.0385C73.6154 9.59473 73.4391 9.16918 73.1254 8.85542C72.8116 8.54165 72.386 8.36538 71.9423 8.36538H68.6721L73.2421 2.72611C73.441 2.48057 73.5663 2.18372 73.6035 1.86993C73.6407 1.55614 73.5882 1.23824 73.4522 0.953013C73.3162 0.66779 73.1022 0.426911 72.835 0.258253C72.5678 0.0895962 72.2583 5.73434e-05 71.9423 0H65.25C64.8063 0 64.3807 0.17627 64.067 0.490033C63.7532 0.803796 63.5769 1.22935 63.5769 1.67308C63.5769 2.1168 63.7532 2.54236 64.067 2.85612C64.3807 3.16988 64.8063 3.34615 65.25 3.34615H68.4327L63.8629 8.98543C63.664 9.23083 63.5387 9.52753 63.5014 9.84119C63.4641 10.1549 63.5163 10.4727 63.6521 10.7579Z" stroke="#0E5879" stroke-width="4" mask="url(#path-1-inside-1_316_369)"/>
<path d="M33.3873 49.5388C33.5122 49.1164 33.4655 48.6618 33.2574 48.2736C33.0493 47.8855 32.6965 47.595 32.2756 47.4653C31.8546 47.3356 31.3995 47.3771 31.009 47.5809C30.6185 47.7846 30.3241 48.1341 30.1897 48.5535C30.0743 48.9252 29.8449 49.2511 29.5339 49.485C29.2229 49.719 28.8461 49.8491 28.457 49.8568C28.0679 49.8646 27.6863 49.7497 27.3662 49.5284C27.0461 49.307 26.8038 48.9905 26.6737 48.6238C26.5257 48.2054 26.2176 47.8629 25.8171 47.6717C25.4166 47.4805 24.9566 47.4562 24.5382 47.6042C24.1198 47.7522 23.7773 48.0603 23.5861 48.4608C23.3949 48.8613 23.3706 49.3213 23.5186 49.7397C23.8834 50.7698 24.5635 51.6588 25.4622 52.2804C26.361 52.902 27.4328 53.2246 28.5254 53.2024C29.618 53.1802 30.6758 52.8143 31.5486 52.1566C32.4213 51.499 33.0647 50.5829 33.3873 49.5388Z" stroke="#0E5879" stroke-width="4" mask="url(#path-1-inside-1_316_369)"/>
<path d="M55.7041 47.4474C55.4942 47.3822 55.2734 47.359 55.0545 47.3793C54.8356 47.3996 54.6229 47.463 54.4286 47.5658C54.2342 47.6686 54.0621 47.8087 53.9221 47.9782C53.7821 48.1477 53.677 48.3432 53.6128 48.5535C53.4974 48.9252 53.268 49.2511 52.957 49.485C52.646 49.719 52.2692 49.849 51.8801 49.8568C51.4911 49.8646 51.1094 49.7497 50.7893 49.5283C50.4692 49.307 50.2269 48.9905 50.0968 48.6238C49.9488 48.2054 49.6407 47.8629 49.2402 47.6717C48.8397 47.4805 48.3797 47.4562 47.9613 47.6042C47.5429 47.7522 47.2004 48.0603 47.0092 48.4608C46.818 48.8613 46.7937 49.3213 46.9417 49.7397C47.3065 50.7698 47.9866 51.6588 48.8854 52.2804C49.7841 52.902 50.8559 53.2246 51.9485 53.2024C53.0411 53.1802 54.0989 52.8142 54.9717 52.1566C55.8444 51.499 56.4878 50.583 56.8104 49.5389C56.941 49.1149 56.8979 48.6563 56.6904 48.2641C56.4829 47.8718 56.1282 47.5781 55.7041 47.4474Z" stroke="#0E5879" stroke-width="4" mask="url(#path-1-inside-1_316_369)"/>
</svg>
