<svg xmlns="http://www.w3.org/2000/svg" width="36" height="37" viewBox="0 0 36 37" fill="none">
  <path d="M17.8262 0C8.18509 0 0.341431 8.2991 0.341431 18.5C0.341431 28.7009 8.18509 37 17.8262 37C27.4673 37 35.3109 28.7009 35.3109 18.5C35.3109 8.2991 27.4673 0 17.8262 0ZM17.8262 33.3C10.1137 33.3 3.83838 26.6604 3.83838 18.5C3.83838 10.3397 10.1137 3.7 17.8262 3.7C25.5387 3.7 31.814 10.3397 31.814 18.5C31.814 26.6604 25.5387 33.3 17.8262 33.3Z" fill="#0E5879"/>
  <path d="M17.8262 29.6001C20.7232 29.6001 23.0717 27.5294 23.0717 24.9751C23.0717 22.4208 20.7232 20.3501 17.8262 20.3501C14.9293 20.3501 12.5808 22.4208 12.5808 24.9751C12.5808 27.5294 14.9293 29.6001 17.8262 29.6001Z" fill="#0E5879"/>
  <path d="M14.3292 9.25C9.24991 9.25 7.36505 13.6641 7.33533 16.6315L10.8323 16.6703C10.8358 16.2874 10.9652 12.95 14.3292 12.95V9.25ZM21.3231 9.25V12.95C24.5158 12.95 24.8061 15.7934 24.8201 16.6629L26.5686 16.65H28.317C28.317 13.6752 26.4549 9.25 21.3231 9.25Z" fill="#0E5879"/>
</svg>
