<svg width="69" height="65" viewBox="0 0 69 65" fill="none" xmlns="http://www.w3.org/2000/svg">
<path d="M54.692 0C57.5008 0 60.0059 2.83797 60.0059 6.65013C60.0059 10.4759 57.5008 13.3003 54.692 13.3003C51.8832 13.3003 49.3781 10.4759 49.3781 6.65013C49.3781 2.83797 51.8832 0 54.692 0ZM34.5144 0C37.308 0 39.8283 2.83797 39.8283 6.65013C39.8283 10.4759 37.308 13.3003 34.5144 13.3003C31.7056 13.3003 29.1853 10.4759 29.1853 6.65013C29.1853 2.83797 31.7056 0 34.5144 0ZM14.3216 0C17.1304 0 19.6355 2.83797 19.6355 6.65013C19.6355 10.4759 17.1304 13.3003 14.3216 13.3003C11.5129 13.3003 8.99408 10.4759 8.99408 6.65013C8.99408 2.83797 11.5129 0 14.3216 0ZM34.5144 16.472C44.2312 16.7741 52.4298 16.7741 62.2681 17.1064C66.9595 19.7948 69.1306 33.5693 68.9939 38.3572L66.3218 41.0305C65.1528 34.5662 63.68 25.942 61.2357 24.0238V37.2546L61.8581 65H58.4876L55.9521 37.1036H53.2193L50.6838 65H47.2981L47.9358 37.2546L46.7212 23.8879H42.2727L41.1795 37.2093L41.8172 64.9547H38.4315L35.8808 37.0583H33.148L30.5973 64.9547H27.2268L27.8645 37.2093L26.7561 23.8879H22.3076L21.093 37.2546L21.7307 65H18.345L15.8095 37.1036H13.0767L10.5123 65H7.14181L7.77948 37.2546V24.0238C5.31991 25.942 3.8472 34.5662 2.67815 41.0305L0.00602412 38.3572C-0.130619 33.5693 2.05567 19.7948 6.73189 17.1064C16.599 16.7741 24.7976 16.7741 34.5144 16.472Z" fill="#0E5879"/>
</svg>
