<svg width="127" height="127" viewBox="0 0 127 127" fill="none" xmlns="http://www.w3.org/2000/svg">
  <path d="M63.4999 0.583252C28.8958 0.583252 0.583252 28.8958 0.583252 63.4999C0.583252 98.1041 28.8958 126.417 63.4999 126.417C98.1041 126.417 126.417 98.1041 126.417 63.4999C126.417 28.8958 98.1041 0.583252 63.4999 0.583252ZM63.4999 113.833C35.7537 113.833 13.1666 91.2462 13.1666 63.4999C13.1666 35.7537 35.7537 13.1666 63.4999 13.1666C91.2462 13.1666 113.833 35.7537 113.833 63.4999C113.833 91.2462 91.2462 113.833 63.4999 113.833ZM92.3787 35.6908L50.9166 77.1528L34.6212 60.9203L25.7499 69.7916L50.9166 94.9583L101.25 44.6249L92.3787 35.6908Z" fill="#19A7CE"/>
  </svg>
