<svg width="113" height="57" viewBox="0 0 113 57" fill="none" xmlns="http://www.w3.org/2000/svg">
<path d="M53.6375 2.18182V16H52.0182L44.4884 5.15057H44.3534V16H42.6801V2.18182H44.2994L51.8563 13.0582H51.9912V2.18182H53.6375ZM60.9801 16.2159C60.0445 16.2159 59.2236 15.9933 58.5174 15.5479C57.8157 15.1026 57.2669 14.4796 56.8711 13.679C56.4798 12.8783 56.2841 11.9427 56.2841 10.8722C56.2841 9.79261 56.4798 8.85026 56.8711 8.0451C57.2669 7.23994 57.8157 6.6147 58.5174 6.16939C59.2236 5.72408 60.0445 5.50142 60.9801 5.50142C61.9157 5.50142 62.7344 5.72408 63.4361 6.16939C64.1423 6.6147 64.6911 7.23994 65.0824 8.0451C65.4782 8.85026 65.6761 9.79261 65.6761 10.8722C65.6761 11.9427 65.4782 12.8783 65.0824 13.679C64.6911 14.4796 64.1423 15.1026 63.4361 15.5479C62.7344 15.9933 61.9157 16.2159 60.9801 16.2159ZM60.9801 14.7855C61.6908 14.7855 62.2756 14.6033 62.7344 14.239C63.1932 13.8746 63.5328 13.3956 63.7532 12.8018C63.9736 12.2081 64.0838 11.5649 64.0838 10.8722C64.0838 10.1795 63.9736 9.53397 63.7532 8.93572C63.5328 8.33748 63.1932 7.85393 62.7344 7.48508C62.2756 7.11624 61.6908 6.93182 60.9801 6.93182C60.2694 6.93182 59.6847 7.11624 59.2259 7.48508C58.767 7.85393 58.4274 8.33748 58.207 8.93572C57.9866 9.53397 57.8764 10.1795 57.8764 10.8722C57.8764 11.5649 57.9866 12.2081 58.207 12.8018C58.4274 13.3956 58.767 13.8746 59.2259 14.239C59.6847 14.6033 60.2694 14.7855 60.9801 14.7855ZM34.9715 35.2159C33.9729 35.2159 33.1115 34.9955 32.3873 34.5547C31.6676 34.1094 31.1121 33.4886 30.7208 32.6925C30.334 31.8918 30.1405 30.9607 30.1405 29.8991C30.1405 28.8376 30.334 27.902 30.7208 27.0923C31.1121 26.2782 31.6564 25.6439 32.3536 25.1896C33.0553 24.7308 33.874 24.5014 34.8096 24.5014C35.3493 24.5014 35.8824 24.5914 36.4086 24.7713C36.9349 24.9512 37.414 25.2436 37.8458 25.6484C38.2776 26.0488 38.6217 26.5795 38.8781 27.2408C39.1345 27.902 39.2627 28.7161 39.2627 29.6832V30.358H31.2741V28.9815H37.6434C37.6434 28.3968 37.5264 27.875 37.2925 27.4162C37.0631 26.9574 36.7348 26.5953 36.3074 26.3299C35.8846 26.0645 35.3853 25.9318 34.8096 25.9318C34.1753 25.9318 33.6266 26.0893 33.1633 26.4041C32.7045 26.7145 32.3514 27.1193 32.104 27.6186C31.8566 28.1179 31.7329 28.6532 31.7329 29.2244V30.142C31.7329 30.9247 31.8678 31.5882 32.1377 32.1325C32.4121 32.6722 32.7922 33.0838 33.278 33.3672C33.7638 33.6461 34.3283 33.7855 34.9715 33.7855C35.3898 33.7855 35.7677 33.727 36.105 33.6101C36.4469 33.4886 36.7415 33.3087 36.9889 33.0703C37.2363 32.8274 37.4275 32.526 37.5624 32.1662L39.1008 32.598C38.9388 33.1198 38.6667 33.5786 38.2844 33.9744C37.902 34.3658 37.4297 34.6716 36.8675 34.892C36.3052 35.108 35.6732 35.2159 34.9715 35.2159ZM49.0258 26.9574L47.5954 27.3622C47.5055 27.1238 47.3728 26.8922 47.1974 26.6673C47.0264 26.4379 46.7925 26.2489 46.4957 26.1005C46.1988 25.9521 45.8187 25.8778 45.3554 25.8778C44.7211 25.8778 44.1926 26.024 43.7698 26.3164C43.3515 26.6043 43.1423 26.9709 43.1423 27.4162C43.1423 27.812 43.2863 28.1246 43.5741 28.354C43.862 28.5835 44.3118 28.7746 44.9236 28.9276L46.4619 29.3054C47.3885 29.5303 48.079 29.8744 48.5333 30.3377C48.9876 30.7965 49.2148 31.388 49.2148 32.1122C49.2148 32.706 49.0438 33.2367 48.702 33.7045C48.3646 34.1723 47.8923 34.5412 47.2851 34.8111C46.6778 35.081 45.9716 35.2159 45.1665 35.2159C44.1094 35.2159 43.2345 34.9865 42.5418 34.5277C41.8491 34.0689 41.4105 33.3987 41.2261 32.517L42.7375 32.1392C42.8814 32.697 43.1536 33.1153 43.5539 33.3942C43.9587 33.6731 44.4872 33.8125 45.1395 33.8125C45.8817 33.8125 46.4709 33.6551 46.9072 33.3402C47.348 33.0208 47.5684 32.6385 47.5684 32.1932C47.5684 31.8333 47.4425 31.532 47.1906 31.2891C46.9387 31.0417 46.5519 30.8572 46.0301 30.7358L44.3028 30.331C43.3537 30.1061 42.6565 29.7575 42.2112 29.2852C41.7704 28.8084 41.55 28.2124 41.55 27.4972C41.55 26.9124 41.7142 26.3951 42.0425 25.9453C42.3754 25.4955 42.8274 25.1424 43.3987 24.886C43.9745 24.6296 44.6267 24.5014 45.3554 24.5014C46.3809 24.5014 47.1861 24.7263 47.7709 25.1761C48.3601 25.6259 48.7784 26.2197 49.0258 26.9574ZM56.1188 24.6364V25.9858H50.748V24.6364H56.1188ZM52.3134 22.1534H53.9057V32.0312C53.9057 32.4811 53.9709 32.8184 54.1014 33.0433C54.2363 33.2637 54.4073 33.4122 54.6142 33.4886C54.8256 33.5606 55.0482 33.5966 55.2821 33.5966C55.4576 33.5966 55.6015 33.5876 55.714 33.5696C55.8264 33.5471 55.9164 33.5291 55.9838 33.5156L56.3077 34.946C56.1998 34.9865 56.0491 35.027 55.8556 35.0675C55.6622 35.1125 55.4171 35.1349 55.1202 35.1349C54.6704 35.1349 54.2296 35.0382 53.7978 34.8448C53.3704 34.6514 53.0151 34.3568 52.7317 33.9609C52.4528 33.5651 52.3134 33.0658 52.3134 32.4631V22.1534ZM62.6129 35.2159C61.6773 35.2159 60.8564 34.9933 60.1502 34.5479C59.4485 34.1026 58.8997 33.4796 58.5039 32.679C58.1126 31.8783 57.9169 30.9427 57.9169 29.8722C57.9169 28.7926 58.1126 27.8503 58.5039 27.0451C58.8997 26.2399 59.4485 25.6147 60.1502 25.1694C60.8564 24.7241 61.6773 24.5014 62.6129 24.5014C63.5485 24.5014 64.3672 24.7241 65.0689 25.1694C65.7751 25.6147 66.3239 26.2399 66.7152 27.0451C67.111 27.8503 67.3089 28.7926 67.3089 29.8722C67.3089 30.9427 67.111 31.8783 66.7152 32.679C66.3239 33.4796 65.7751 34.1026 65.0689 34.5479C64.3672 34.9933 63.5485 35.2159 62.6129 35.2159ZM62.6129 33.7855C63.3236 33.7855 63.9084 33.6033 64.3672 33.239C64.826 32.8746 65.1656 32.3956 65.386 31.8018C65.6064 31.2081 65.7166 30.5649 65.7166 29.8722C65.7166 29.1795 65.6064 28.534 65.386 27.9357C65.1656 27.3375 64.826 26.8539 64.3672 26.4851C63.9084 26.1162 63.3236 25.9318 62.6129 25.9318C61.9022 25.9318 61.3175 26.1162 60.8587 26.4851C60.3999 26.8539 60.0603 27.3375 59.8398 27.9357C59.6194 28.534 59.5092 29.1795 59.5092 29.8722C59.5092 30.5649 59.6194 31.2081 59.8398 31.8018C60.0603 32.3956 60.3999 32.8746 60.8587 33.239C61.3175 33.6033 61.9022 33.7855 62.6129 33.7855ZM70.3941 38.8864C70.1242 38.8864 69.8836 38.8639 69.6721 38.8189C69.4607 38.7784 69.3145 38.7379 69.2336 38.6974L69.6384 37.294C70.0252 37.393 70.3671 37.429 70.664 37.402C70.9608 37.375 71.224 37.2423 71.4534 37.0039C71.6873 36.77 71.901 36.3899 72.0944 35.8636L72.3912 35.054L68.5589 24.6364H70.2861L73.1469 32.8949H73.2549L76.1157 24.6364H77.843L73.4438 36.5114C73.2459 37.0466 73.0007 37.4897 72.7084 37.8406C72.416 38.1959 72.0764 38.459 71.6895 38.63C71.3072 38.8009 70.8754 38.8864 70.3941 38.8864ZM5.92414 54.2159C4.92556 54.2159 4.06417 53.9955 3.33998 53.5547C2.62028 53.1094 2.06476 52.4886 1.67343 51.6925C1.28659 50.8918 1.09317 49.9607 1.09317 48.8991C1.09317 47.8376 1.28659 46.902 1.67343 46.0923C2.06476 45.2782 2.60903 44.6439 3.30624 44.1896C4.00795 43.7308 4.8266 43.5014 5.76221 43.5014C6.30198 43.5014 6.83501 43.5914 7.36128 43.7713C7.88756 43.9512 8.36661 44.2436 8.79843 44.6484C9.23025 45.0488 9.57435 45.5795 9.83074 46.2408C10.0871 46.902 10.2153 47.7161 10.2153 48.6832V49.358H2.2267V47.9815H8.59601C8.59601 47.3968 8.47906 46.875 8.24516 46.4162C8.01576 45.9574 7.6874 45.5953 7.26008 45.3299C6.83725 45.0645 6.33796 44.9318 5.76221 44.9318C5.12797 44.9318 4.57921 45.0893 4.1159 45.4041C3.65709 45.7145 3.30399 46.1193 3.0566 46.6186C2.8092 47.1179 2.6855 47.6532 2.6855 48.2244V49.142C2.6855 49.9247 2.82045 50.5882 3.09033 51.1325C3.36472 51.6722 3.74481 52.0838 4.2306 52.3672C4.7164 52.6461 5.28091 52.7855 5.92414 52.7855C6.34246 52.7855 6.7203 52.727 7.05766 52.6101C7.39952 52.4886 7.69414 52.3087 7.94154 52.0703C8.18894 51.8274 8.3801 51.526 8.51505 51.1662L10.0534 51.598C9.89147 52.1198 9.61933 52.5786 9.23699 52.9744C8.85466 53.3658 8.38235 53.6716 7.82009 53.892C7.25783 54.108 6.62584 54.2159 5.92414 54.2159ZM14.2299 47.7656V54H12.6376V43.6364H14.1759V45.2557H14.3109C14.5538 44.7294 14.9226 44.3066 15.4174 43.9872C15.9122 43.6634 16.5509 43.5014 17.3336 43.5014C18.0353 43.5014 18.6493 43.6454 19.1756 43.9332C19.7018 44.2166 20.1112 44.6484 20.4035 45.2287C20.6959 45.8045 20.8421 46.5331 20.8421 47.4148V54H19.2498V47.5227C19.2498 46.7086 19.0384 46.0743 18.6155 45.62C18.1927 45.1612 17.6125 44.9318 16.8748 44.9318C16.3665 44.9318 15.9122 45.042 15.5119 45.2624C15.116 45.4828 14.8034 45.8045 14.574 46.2273C14.3446 46.6501 14.2299 47.1629 14.2299 47.7656ZM28.2589 43.6364V44.9858H22.8882V43.6364H28.2589ZM24.4535 41.1534H26.0459V51.0312C26.0459 51.4811 26.1111 51.8184 26.2415 52.0433C26.3765 52.2637 26.5474 52.4122 26.7543 52.4886C26.9657 52.5606 27.1884 52.5966 27.4223 52.5966C27.5977 52.5966 27.7416 52.5876 27.8541 52.5696C27.9665 52.5471 28.0565 52.5291 28.124 52.5156L28.4478 53.946C28.3399 53.9865 28.1892 54.027 27.9958 54.0675C27.8024 54.1125 27.5572 54.1349 27.2603 54.1349C26.8105 54.1349 26.3697 54.0382 25.9379 53.8448C25.5106 53.6514 25.1552 53.3568 24.8718 52.9609C24.593 52.5651 24.4535 52.0658 24.4535 51.4631V41.1534ZM34.888 54.2159C33.8894 54.2159 33.028 53.9955 32.3038 53.5547C31.5841 53.1094 31.0286 52.4886 30.6373 51.6925C30.2505 50.8918 30.057 49.9607 30.057 48.8991C30.057 47.8376 30.2505 46.902 30.6373 46.0923C31.0286 45.2782 31.5729 44.6439 32.2701 44.1896C32.9718 43.7308 33.7905 43.5014 34.7261 43.5014C35.2658 43.5014 35.7989 43.5914 36.3252 43.7713C36.8514 43.9512 37.3305 44.2436 37.7623 44.6484C38.1941 45.0488 38.5382 45.5795 38.7946 46.2408C39.051 46.902 39.1792 47.7161 39.1792 48.6832V49.358H31.1906V47.9815H37.5599C37.5599 47.3968 37.4429 46.875 37.209 46.4162C36.9796 45.9574 36.6513 45.5953 36.2239 45.3299C35.8011 45.0645 35.3018 44.9318 34.7261 44.9318C34.0918 44.9318 33.5431 45.0893 33.0798 45.4041C32.621 45.7145 32.2679 46.1193 32.0205 46.6186C31.7731 47.1179 31.6494 47.6532 31.6494 48.2244V49.142C31.6494 49.9247 31.7843 50.5882 32.0542 51.1325C32.3286 51.6722 32.7087 52.0838 33.1945 52.3672C33.6803 52.6461 34.2448 52.7855 34.888 52.7855C35.3063 52.7855 35.6842 52.727 36.0215 52.6101C36.3634 52.4886 36.658 52.3087 36.9054 52.0703C37.1528 51.8274 37.344 51.526 37.4789 51.1662L39.0173 51.598C38.8553 52.1198 38.5832 52.5786 38.2009 52.9744C37.8185 53.3658 37.3462 53.6716 36.784 53.892C36.2217 54.108 35.5897 54.2159 34.888 54.2159ZM43.1938 47.7656V54H41.6014V43.6364H43.1398V45.2557H43.2747C43.5176 44.7294 43.8865 44.3066 44.3813 43.9872C44.8761 43.6634 45.5148 43.5014 46.2975 43.5014C46.9992 43.5014 47.6131 43.6454 48.1394 43.9332C48.6657 44.2166 49.075 44.6484 49.3674 45.2287C49.6598 45.8045 49.806 46.5331 49.806 47.4148V54H48.2136V47.5227C48.2136 46.7086 48.0022 46.0743 47.5794 45.62C47.1566 45.1612 46.5763 44.9318 45.8386 44.9318C45.3304 44.9318 44.8761 45.042 44.4757 45.2624C44.0799 45.4828 43.7673 45.8045 43.5379 46.2273C43.3085 46.6501 43.1938 47.1629 43.1938 47.7656ZM56.629 54.2159C55.7654 54.2159 55.003 53.9978 54.3418 53.5614C53.6805 53.1206 53.1632 52.4999 52.7899 51.6992C52.4166 50.8941 52.2299 49.9427 52.2299 48.8452C52.2299 47.7566 52.4166 46.812 52.7899 46.0114C53.1632 45.2107 53.6828 44.5922 54.3485 44.1559C55.0142 43.7196 55.7834 43.5014 56.656 43.5014C57.3307 43.5014 57.8638 43.6139 58.2551 43.8388C58.6509 44.0592 58.9523 44.3111 59.1592 44.5945C59.3706 44.8733 59.5348 45.1027 59.6518 45.2827H59.7867V40.1818H61.379V54H59.8407V52.4077H59.6518C59.5348 52.5966 59.3684 52.835 59.1525 53.1229C58.9366 53.4062 58.6284 53.6604 58.2281 53.8853C57.8278 54.1057 57.2948 54.2159 56.629 54.2159ZM56.8449 52.7855C57.4837 52.7855 58.0235 52.6191 58.4643 52.2862C58.9051 51.9489 59.2402 51.4833 59.4696 50.8896C59.699 50.2913 59.8137 49.6009 59.8137 48.8182C59.8137 48.0445 59.7012 47.3675 59.4763 46.7873C59.2514 46.2025 58.9186 45.7482 58.4778 45.4244C58.0369 45.096 57.4927 44.9318 56.8449 44.9318C56.1702 44.9318 55.608 45.105 55.1582 45.4513C54.7128 45.7932 54.3777 46.2588 54.1528 46.848C53.9324 47.4328 53.8222 48.0895 53.8222 48.8182C53.8222 49.5559 53.9347 50.2261 54.1596 50.8288C54.389 51.4271 54.7263 51.9039 55.1717 52.2592C55.6215 52.6101 56.1792 52.7855 56.8449 52.7855ZM64.5165 54V43.6364H66.1088V54H64.5165ZM65.3261 41.9091C65.0158 41.9091 64.7481 41.8034 64.5232 41.592C64.3028 41.3806 64.1926 41.1264 64.1926 40.8295C64.1926 40.5327 64.3028 40.2785 64.5232 40.0671C64.7481 39.8557 65.0158 39.75 65.3261 39.75C65.6365 39.75 65.9019 39.8557 66.1223 40.0671C66.3472 40.2785 66.4597 40.5327 66.4597 40.8295C66.4597 41.1264 66.3472 41.3806 66.1223 41.592C65.9019 41.8034 65.6365 41.9091 65.3261 41.9091ZM73.3704 54.2159C72.3718 54.2159 71.5105 53.9955 70.7863 53.5547C70.0666 53.1094 69.5111 52.4886 69.1197 51.6925C68.7329 50.8918 68.5395 49.9607 68.5395 48.8991C68.5395 47.8376 68.7329 46.902 69.1197 46.0923C69.5111 45.2782 70.0553 44.6439 70.7525 44.1896C71.4542 43.7308 72.2729 43.5014 73.2085 43.5014C73.7483 43.5014 74.2813 43.5914 74.8076 43.7713C75.3339 43.9512 75.8129 44.2436 76.2447 44.6484C76.6765 45.0488 77.0206 45.5795 77.277 46.2408C77.5334 46.902 77.6616 47.7161 77.6616 48.6832V49.358H69.673V47.9815H76.0423C76.0423 47.3968 75.9254 46.875 75.6915 46.4162C75.462 45.9574 75.1337 45.5953 74.7064 45.3299C74.2835 45.0645 73.7843 44.9318 73.2085 44.9318C72.5743 44.9318 72.0255 45.0893 71.5622 45.4041C71.1034 45.7145 70.7503 46.1193 70.5029 46.6186C70.2555 47.1179 70.1318 47.6532 70.1318 48.2244V49.142C70.1318 49.9247 70.2667 50.5882 70.5366 51.1325C70.811 51.6722 71.1911 52.0838 71.6769 52.3672C72.1627 52.6461 72.7272 52.7855 73.3704 52.7855C73.7888 52.7855 74.1666 52.727 74.504 52.6101C74.8458 52.4886 75.1404 52.3087 75.3878 52.0703C75.6352 51.8274 75.8264 51.526 75.9613 51.1662L77.4997 51.598C77.3378 52.1198 77.0656 52.5786 76.6833 52.9744C76.3009 53.3658 75.8286 53.6716 75.2664 53.892C74.7041 54.108 74.0721 54.2159 73.3704 54.2159ZM81.6762 47.7656V54H80.0839V43.6364H81.6222V45.2557H81.7571C82 44.7294 82.3689 44.3066 82.8637 43.9872C83.3585 43.6634 83.9972 43.5014 84.7799 43.5014C85.4816 43.5014 86.0956 43.6454 86.6218 43.9332C87.1481 44.2166 87.5575 44.6484 87.8498 45.2287C88.1422 45.8045 88.2884 46.5331 88.2884 47.4148V54H86.6961V47.5227C86.6961 46.7086 86.4847 46.0743 86.0618 45.62C85.639 45.1612 85.0588 44.9318 84.3211 44.9318C83.8128 44.9318 83.3585 45.042 82.9581 45.2624C82.5623 45.4828 82.2497 45.8045 82.0203 46.2273C81.7909 46.6501 81.6762 47.1629 81.6762 47.7656ZM95.1115 54.2159C94.2478 54.2159 93.4854 53.9978 92.8242 53.5614C92.163 53.1206 91.6457 52.4999 91.2723 51.6992C90.899 50.8941 90.7123 49.9427 90.7123 48.8452C90.7123 47.7566 90.899 46.812 91.2723 46.0114C91.6457 45.2107 92.1652 44.5922 92.8309 44.1559C93.4966 43.7196 94.2658 43.5014 95.1384 43.5014C95.8132 43.5014 96.3462 43.6139 96.7375 43.8388C97.1334 44.0592 97.4347 44.3111 97.6416 44.5945C97.8531 44.8733 98.0172 45.1027 98.1342 45.2827H98.2691V40.1818H99.8615V54H98.3231V52.4077H98.1342C98.0172 52.5966 97.8508 52.835 97.6349 53.1229C97.419 53.4062 97.1109 53.6604 96.7105 53.8853C96.3102 54.1057 95.7772 54.2159 95.1115 54.2159ZM95.3274 52.7855C95.9661 52.7855 96.5059 52.6191 96.9467 52.2862C97.3875 51.9489 97.7226 51.4833 97.952 50.8896C98.1814 50.2913 98.2961 49.6009 98.2961 48.8182C98.2961 48.0445 98.1837 47.3675 97.9588 46.7873C97.7339 46.2025 97.401 45.7482 96.9602 45.4244C96.5194 45.096 95.9751 44.9318 95.3274 44.9318C94.6527 44.9318 94.0904 45.105 93.6406 45.4513C93.1953 45.7932 92.8602 46.2588 92.6353 46.848C92.4148 47.4328 92.3046 48.0895 92.3046 48.8182C92.3046 49.5559 92.4171 50.2261 92.642 50.8288C92.8714 51.4271 93.2088 51.9039 93.6541 52.2592C94.1039 52.6101 94.6617 52.7855 95.3274 52.7855ZM107.209 54.2159C106.274 54.2159 105.453 53.9933 104.746 53.5479C104.045 53.1026 103.496 52.4796 103.1 51.679C102.709 50.8783 102.513 49.9427 102.513 48.8722C102.513 47.7926 102.709 46.8503 103.1 46.0451C103.496 45.2399 104.045 44.6147 104.746 44.1694C105.453 43.7241 106.274 43.5014 107.209 43.5014C108.145 43.5014 108.963 43.7241 109.665 44.1694C110.371 44.6147 110.92 45.2399 111.311 46.0451C111.707 46.8503 111.905 47.7926 111.905 48.8722C111.905 49.9427 111.707 50.8783 111.311 51.679C110.92 52.4796 110.371 53.1026 109.665 53.5479C108.963 53.9933 108.145 54.2159 107.209 54.2159ZM107.209 52.7855C107.92 52.7855 108.505 52.6033 108.963 52.239C109.422 51.8746 109.762 51.3956 109.982 50.8018C110.203 50.2081 110.313 49.5649 110.313 48.8722C110.313 48.1795 110.203 47.534 109.982 46.9357C109.762 46.3375 109.422 45.8539 108.963 45.4851C108.505 45.1162 107.92 44.9318 107.209 44.9318C106.498 44.9318 105.914 45.1162 105.455 45.4851C104.996 45.8539 104.656 46.3375 104.436 46.9357C104.216 47.534 104.105 48.1795 104.105 48.8722C104.105 49.5649 104.216 50.2081 104.436 50.8018C104.656 51.3956 104.996 51.8746 105.455 52.239C105.914 52.6033 106.498 52.7855 107.209 52.7855Z" fill="#0E5879"/>
</svg>
