<svg width="184" height="184" viewBox="0 0 184 184" fill="none" xmlns="http://www.w3.org/2000/svg">
<circle cx="92" cy="92" r="90.5" stroke="#0E5879" stroke-width="3"/>
<path d="M73.5455 85.2273V82.7273H91V85.2273H83.6818V106H80.8636V85.2273H73.5455ZM95.3494 106V82.7273H103.213C105.031 82.7273 106.524 83.0379 107.69 83.6591C108.857 84.2727 109.721 85.1174 110.281 86.1932C110.842 87.2689 111.122 88.4924 111.122 89.8636C111.122 91.2348 110.842 92.4508 110.281 93.5114C109.721 94.572 108.861 95.4053 107.702 96.0114C106.543 96.6098 105.062 96.9091 103.259 96.9091H96.8949V94.3636H103.168C104.41 94.3636 105.41 94.1818 106.168 93.8182C106.933 93.4545 107.486 92.9394 107.827 92.2727C108.175 91.5985 108.349 90.7955 108.349 89.8636C108.349 88.9318 108.175 88.1174 107.827 87.4205C107.478 86.7235 106.921 86.1856 106.156 85.8068C105.391 85.4205 104.38 85.2273 103.122 85.2273H98.1676V106H95.3494ZM106.304 95.5455L112.031 106H108.759L103.122 95.5455H106.304Z" fill="#0E5879"/>
</svg>
