<svg width="40" height="40" viewBox="0 0 40 40" fill="none" xmlns="http://www.w3.org/2000/svg">
  <path d="M38 4H32V2C32 1.46957 31.7893 0.960859 31.4142 0.585786C31.0391 0.210714 30.5304 0 30 0H10C9.46957 0 8.96086 0.210714 8.58579 0.585786C8.21071 0.960859 8 1.46957 8 2V4H2C1.46957 4 0.960859 4.21071 0.585786 4.58579C0.210714 4.96086 0 5.46957 0 6V12C0 20.62 3.6 25.82 9.64 26C10.5213 27.5239 11.7271 28.8353 13.1718 29.8411C14.6166 30.8469 16.2649 31.5225 18 31.82V36H14V40H26V36H22V31.82C23.7351 31.5225 25.3834 30.8469 26.8282 29.8411C28.273 28.8353 29.4787 27.5239 30.36 26C36.36 25.8 40 20.6 40 12V6C40 5.46957 39.7893 4.96086 39.4142 4.58579C39.0391 4.21071 38.5304 4 38 4ZM4 12V8H8V21.66C4.44 20.16 4 14.6 4 12ZM32 21.66V8H36V12C36 14.6 35.56 20.16 32 21.66Z" fill="#0E5879"/>
  </svg>
