<svg width="35" height="35" viewBox="0 0 35 35" fill="none" xmlns="http://www.w3.org/2000/svg">
<g clip-path="url(#clip0_507_92)">
<path d="M29.1506 9.54898H29.1513C29.1513 9.54898 28.1313 6.93416 29.1513 5.27662C30.171 3.61899 24.4866 2.78952 24.1317 2.78952C23.7763 2.78952 24.1317 0.89452 24.1317 0.89452C24.1317 0.89452 17.5 -1.11815 17.5 0.89452C17.5 -1.11815 10.8684 0.89452 10.8684 0.89452C10.8684 0.89452 11.2237 2.78952 10.8684 2.78952C10.513 2.78952 4.82895 3.61834 5.84881 5.27662C6.86867 6.93474 5.84881 9.54898 5.84881 9.54898H5.84946C3.51844 12.2471 2.10513 15.7601 2.10513 19.6052C2.10513 28.1074 8.99794 34.9999 17.4999 34.9999C26.0021 34.9999 32.8947 28.1073 32.8947 19.6052C32.8948 15.7596 31.4815 12.2471 29.1506 9.54898ZM17.5 31.2826C11.0505 31.2826 5.8225 26.0545 5.8225 19.6052C5.8225 15.3171 8.1411 11.5791 11.5855 9.54898C13.3219 8.52471 15.3388 7.92771 17.5007 7.92771C19.6625 7.92771 21.679 8.52528 23.4155 9.54898C26.8604 11.5799 29.1788 15.3178 29.1788 19.6052C29.1774 26.0545 23.9493 31.2826 17.5 31.2826Z" fill="#000A10"/>
</g>
<defs>
<clipPath id="clip0_507_92">
<rect width="35" height="35" fill="white"/>
</clipPath>
</defs>
</svg>
