<svg width="111" height="126" viewBox="0 0 111 126" fill="none" xmlns="http://www.w3.org/2000/svg">
<path d="M97.364 34.3764H97.3663C97.3663 34.3764 93.6943 24.963 97.3663 18.9959C101.037 13.0284 80.5735 10.0423 79.2957 10.0423C78.0163 10.0423 79.2957 3.22028 79.2957 3.22028C79.2957 3.22028 55.4216 -4.02535 55.4216 3.22028C55.4216 -4.02535 31.5479 3.22028 31.5479 3.22028C31.5479 3.22028 32.827 10.0423 31.5479 10.0423C30.2683 10.0423 9.80576 13.026 13.4773 18.9959C17.1488 24.9651 13.4773 34.3764 13.4773 34.3764H13.4796C5.08791 44.0895 0 56.7363 0 70.5789C0 101.187 24.8142 126 55.4214 126C86.0291 126 110.843 101.186 110.843 70.5789C110.843 56.7346 105.755 44.0895 97.364 34.3764ZM55.4216 112.618C32.2033 112.618 13.3825 93.7964 13.3825 70.5789C13.3825 55.1416 21.7295 41.685 34.1293 34.3764C40.3806 30.689 47.6412 28.5398 55.424 28.5398C63.2068 28.5398 70.4662 30.6911 76.7176 34.3764C89.1191 41.6876 97.4655 55.1443 97.4655 70.5789C97.4605 93.7964 78.6391 112.618 55.4216 112.618Z" fill="black"/>
</svg>
