<svg width="39" height="45" viewBox="0 0 39 45" fill="none" xmlns="http://www.w3.org/2000/svg">
  <path d="M13.2775 17.2379V9.92324C13.2775 9.29558 12.7705 8.78861 12.1428 8.78861H4.75572C4.12805 8.78861 3.62109 9.29558 3.62109 9.92324V17.2379L8.48308 19.8355L13.2775 17.2379ZM35.0043 17.2379V9.92324C35.0043 9.29558 34.4974 8.78861 33.8697 8.78861H26.4826C25.8549 8.78861 25.3479 9.29558 25.3479 9.92324V17.2379L30.1641 19.8355L35.0043 17.2379Z" fill="#F0F0F0"/>
  <path d="M13.2775 17.2379V26.8219C13.2775 30.1413 15.933 32.9054 19.2524 32.9295C22.6079 32.9657 25.3479 30.2378 25.3479 26.8943V17.2379H35.0043V26.8943C35.0043 35.5609 27.9793 42.5859 19.3127 42.5859C10.6461 42.5859 3.62109 35.5609 3.62109 26.8943V17.2379H13.2775Z" fill="#0E5879"/>
  <path d="M16.2028 7.38476C16.2456 7.52469 16.3331 7.64674 16.4519 7.73223C16.5707 7.81773 16.7142 7.86197 16.8605 7.85818H19.4312L17.6246 11.9034C17.5743 12.0163 17.5656 12.1433 17.6001 12.2619C17.6347 12.3806 17.7101 12.4831 17.8132 12.5513C17.9162 12.6195 18.0401 12.649 18.1628 12.6344C18.2855 12.6199 18.3991 12.5623 18.4833 12.4718L24.2734 6.2453C24.37 6.14766 24.4353 6.02353 24.4611 5.88868C24.487 5.75383 24.4721 5.61434 24.4185 5.48793C24.3648 5.35682 24.2732 5.24465 24.1556 5.16566C24.0379 5.08667 23.8994 5.04441 23.7577 5.04426H21.2105L23.8183 0.84243C23.885 0.735101 23.9104 0.607227 23.89 0.482539C23.8695 0.357851 23.8046 0.244811 23.7071 0.164394C23.5886 0.0662651 23.5088 -2.47955e-05 23.4085 -2.47955e-05C23.1998 -2.47955e-05 22.9043 0.290711 21.9909 1.18954L16.5536 6.5517C16.4134 6.63447 16.3036 6.76018 16.2404 6.91021C16.1772 7.06025 16.164 7.22664 16.2028 7.38476Z" fill="#0E5879"/>
  </svg>
